<mxfile host="drawio-plugin" modified="2021-10-11T07:38:37.461Z" agent="5.0 (Windows NT 6.2; Win64; x64) AppleWebKit/537.36 (KHTML, like Gecko) Chrome/89.0.4389.114 Safari/537.36" etag="6572QmUSc2k3GJ4tsUwB" version="14.7.4" type="embed"><diagram id="jWq45m9Taf770IBTLP3y" name="第 1 页"><mxGraphModel dx="960" dy="663" grid="1" gridSize="10" guides="1" tooltips="1" connect="1" arrows="1" fold="1" page="1" pageScale="1" pageWidth="690" pageHeight="980" background="#DAD2D8" math="0" shadow="0"><root><mxCell id="0"/><mxCell id="1" parent="0"/><mxCell id="liFReSEdS2mjlkRS8NIn-1" value="" style="rounded=0;whiteSpace=wrap;html=1;fillColor=#FAE5C7;strokeColor=#0F8B8D;fontColor=#143642;" parent="1" vertex="1"><mxGeometry x="160" y="80" width="360" height="680" as="geometry"/></mxCell><mxCell id="liFReSEdS2mjlkRS8NIn-12" value="首页" parent="0" visible="0"/><mxCell id="liFReSEdS2mjlkRS8NIn-20" value="&lt;font color=&quot;#919191&quot;&gt;Logo&lt;/font&gt;" style="rounded=0;whiteSpace=wrap;html=1;sketch=0;strokeColor=#666666;fillColor=#f5f5f5;fontColor=#333333;" parent="liFReSEdS2mjlkRS8NIn-12" vertex="1"><mxGeometry x="230" y="140" width="220" height="110" as="geometry"/></mxCell><mxCell id="liFReSEdS2mjlkRS8NIn-13" value="首页.注册" parent="0" visible="0"/><mxCell id="liFReSEdS2mjlkRS8NIn-23" value="" style="rounded=0;whiteSpace=wrap;html=1;sketch=0;strokeColor=#0F8B8D;fillColor=#FAE5C7;fontColor=#143642;" parent="liFReSEdS2mjlkRS8NIn-13" vertex="1"><mxGeometry x="282.5" y="310" width="180" height="30" as="geometry"/></mxCell><mxCell id="liFReSEdS2mjlkRS8NIn-24" value="邮箱：" style="text;html=1;strokeColor=none;fillColor=none;align=center;verticalAlign=middle;whiteSpace=wrap;rounded=0;sketch=0;fontColor=#143642;" parent="liFReSEdS2mjlkRS8NIn-13" vertex="1"><mxGeometry x="190" y="310" width="80" height="30" as="geometry"/></mxCell><mxCell id="liFReSEdS2mjlkRS8NIn-25" value="" style="rounded=0;whiteSpace=wrap;html=1;sketch=0;strokeColor=#0F8B8D;fillColor=#FAE5C7;fontColor=#143642;" parent="liFReSEdS2mjlkRS8NIn-13" vertex="1"><mxGeometry x="282.5" y="360" width="180" height="30" as="geometry"/></mxCell><mxCell id="liFReSEdS2mjlkRS8NIn-26" value="密码：" style="text;html=1;strokeColor=none;fillColor=none;align=center;verticalAlign=middle;whiteSpace=wrap;rounded=0;sketch=0;fontColor=#143642;" parent="liFReSEdS2mjlkRS8NIn-13" vertex="1"><mxGeometry x="190" y="360" width="80" height="30" as="geometry"/></mxCell><mxCell id="liFReSEdS2mjlkRS8NIn-27" value="&lt;font color=&quot;#8c8c8c&quot;&gt;请再输入一遍密码&lt;/font&gt;" style="rounded=0;whiteSpace=wrap;html=1;sketch=0;strokeColor=#0F8B8D;fillColor=#FAE5C7;fontColor=#143642;align=left;" parent="liFReSEdS2mjlkRS8NIn-13" vertex="1"><mxGeometry x="282.5" y="410" width="180" height="30" as="geometry"/></mxCell><mxCell id="liFReSEdS2mjlkRS8NIn-28" value="密码确认：" style="text;html=1;strokeColor=none;fillColor=none;align=center;verticalAlign=middle;whiteSpace=wrap;rounded=0;sketch=0;fontColor=#143642;" parent="liFReSEdS2mjlkRS8NIn-13" vertex="1"><mxGeometry x="190" y="410" width="80" height="30" as="geometry"/></mxCell><mxCell id="liFReSEdS2mjlkRS8NIn-29" value="注 册" style="rounded=1;whiteSpace=wrap;html=1;sketch=0;strokeColor=#0F8B8D;fillColor=#FAE5C7;fontColor=#143642;" parent="liFReSEdS2mjlkRS8NIn-13" vertex="1"><mxGeometry x="230" y="660" width="100" height="30" as="geometry"/></mxCell><mxCell id="liFReSEdS2mjlkRS8NIn-30" value="我 要 登 录" style="rounded=1;whiteSpace=wrap;html=1;sketch=0;strokeColor=#0F8B8D;fillColor=#FAE5C7;fontColor=#143642;" parent="liFReSEdS2mjlkRS8NIn-13" vertex="1"><mxGeometry x="360" y="660" width="100" height="30" as="geometry"/></mxCell><mxCell id="268" value="" style="rounded=0;whiteSpace=wrap;html=1;sketch=0;strokeColor=#0F8B8D;fillColor=#FAE5C7;fontColor=#143642;" parent="liFReSEdS2mjlkRS8NIn-13" vertex="1"><mxGeometry x="282.5" y="510" width="207.5" height="30" as="geometry"/></mxCell><mxCell id="269" value="你的昵称：" style="text;html=1;strokeColor=none;fillColor=none;align=center;verticalAlign=middle;whiteSpace=wrap;rounded=0;sketch=0;fontColor=#143642;" parent="liFReSEdS2mjlkRS8NIn-13" vertex="1"><mxGeometry x="190" y="510" width="80" height="30" as="geometry"/></mxCell><mxCell id="271" value="北京城&amp;nbsp; &amp;nbsp; &amp;nbsp; &amp;nbsp;&amp;nbsp;" style="rounded=0;whiteSpace=wrap;html=1;sketch=0;strokeColor=#0F8B8D;fillColor=#FAE5C7;fontColor=#143642;align=center;" parent="liFReSEdS2mjlkRS8NIn-13" vertex="1"><mxGeometry x="282.5" y="560" width="207.5" height="30" as="geometry"/></mxCell><mxCell id="272" value="出生城市：" style="text;html=1;strokeColor=none;fillColor=none;align=center;verticalAlign=middle;whiteSpace=wrap;rounded=0;sketch=0;fontColor=#143642;" parent="liFReSEdS2mjlkRS8NIn-13" vertex="1"><mxGeometry x="190" y="560" width="80" height="30" as="geometry"/></mxCell><mxCell id="273" value="男性&amp;nbsp; &amp;nbsp; &amp;nbsp;&amp;nbsp;" style="rounded=0;whiteSpace=wrap;html=1;sketch=0;strokeColor=#0F8B8D;fillColor=#FAE5C7;fontColor=#143642;" parent="liFReSEdS2mjlkRS8NIn-13" vertex="1"><mxGeometry x="282.5" y="610" width="207.5" height="30" as="geometry"/></mxCell><mxCell id="274" value="性别：" style="text;html=1;strokeColor=none;fillColor=none;align=center;verticalAlign=middle;whiteSpace=wrap;rounded=0;sketch=0;fontColor=#143642;" parent="liFReSEdS2mjlkRS8NIn-13" vertex="1"><mxGeometry x="190" y="610" width="80" height="30" as="geometry"/></mxCell><mxCell id="275" style="edgeStyle=orthogonalEdgeStyle;curved=0;rounded=1;sketch=0;orthogonalLoop=1;jettySize=auto;html=1;strokeColor=#A8201A;fillColor=#FAE5C7;fontColor=#143642;" parent="liFReSEdS2mjlkRS8NIn-13" source="276" target="268" edge="1"><mxGeometry relative="1" as="geometry"/></mxCell><mxCell id="276" value="只支持中英文和 .&amp;nbsp;符号" style="text;html=1;strokeColor=#b85450;fillColor=#f8cecc;align=center;verticalAlign=middle;whiteSpace=wrap;rounded=0;sketch=0;" parent="liFReSEdS2mjlkRS8NIn-13" vertex="1"><mxGeometry x="560" y="510" width="80" height="30" as="geometry"/></mxCell><mxCell id="277" value="" style="triangle;whiteSpace=wrap;html=1;rounded=0;sketch=0;strokeColor=#0F8B8D;fillColor=#FAE5C7;fontColor=#143642;rotation=90;" parent="liFReSEdS2mjlkRS8NIn-13" vertex="1"><mxGeometry x="470" y="565" width="10" height="20" as="geometry"/></mxCell><mxCell id="278" style="edgeStyle=orthogonalEdgeStyle;curved=0;rounded=1;sketch=0;orthogonalLoop=1;jettySize=auto;html=1;strokeColor=#A8201A;fillColor=#FAE5C7;fontColor=#143642;" parent="liFReSEdS2mjlkRS8NIn-13" source="279" target="271" edge="1"><mxGeometry relative="1" as="geometry"/></mxCell><mxCell id="279" value="下拉框" style="text;html=1;strokeColor=#b85450;fillColor=#f8cecc;align=center;verticalAlign=middle;whiteSpace=wrap;rounded=0;sketch=0;" parent="liFReSEdS2mjlkRS8NIn-13" vertex="1"><mxGeometry x="560" y="560" width="80" height="30" as="geometry"/></mxCell><mxCell id="280" value="" style="triangle;whiteSpace=wrap;html=1;rounded=0;sketch=0;strokeColor=#0F8B8D;fillColor=#FAE5C7;fontColor=#143642;rotation=90;" parent="liFReSEdS2mjlkRS8NIn-13" vertex="1"><mxGeometry x="470" y="615" width="10" height="20" as="geometry"/></mxCell><mxCell id="281" value="&lt;font color=&quot;#707070&quot;&gt;请输入他人赠予的激活码&lt;/font&gt;" style="rounded=0;whiteSpace=wrap;html=1;sketch=0;strokeColor=#0F8B8D;fillColor=#FAE5C7;fontColor=#143642;align=left;" parent="liFReSEdS2mjlkRS8NIn-13" vertex="1"><mxGeometry x="282.5" y="460" width="207.5" height="30" as="geometry"/></mxCell><mxCell id="282" value="激活码：" style="text;html=1;strokeColor=none;fillColor=none;align=center;verticalAlign=middle;whiteSpace=wrap;rounded=0;sketch=0;fontColor=#143642;" parent="liFReSEdS2mjlkRS8NIn-13" vertex="1"><mxGeometry x="190" y="460" width="80" height="30" as="geometry"/></mxCell><mxCell id="liFReSEdS2mjlkRS8NIn-31" value="首页.登录" style="" parent="0" visible="0"/><mxCell id="liFReSEdS2mjlkRS8NIn-32" value="" style="rounded=0;whiteSpace=wrap;html=1;sketch=0;strokeColor=#0F8B8D;fillColor=#FAE5C7;fontColor=#143642;" parent="liFReSEdS2mjlkRS8NIn-31" vertex="1"><mxGeometry x="282.5" y="310" width="180" height="30" as="geometry"/></mxCell><mxCell id="liFReSEdS2mjlkRS8NIn-33" value="邮箱：" style="text;html=1;strokeColor=none;fillColor=none;align=center;verticalAlign=middle;whiteSpace=wrap;rounded=0;sketch=0;fontColor=#143642;" parent="liFReSEdS2mjlkRS8NIn-31" vertex="1"><mxGeometry x="190" y="310" width="80" height="30" as="geometry"/></mxCell><mxCell id="liFReSEdS2mjlkRS8NIn-34" value="" style="rounded=0;whiteSpace=wrap;html=1;sketch=0;strokeColor=#0F8B8D;fillColor=#FAE5C7;fontColor=#143642;" parent="liFReSEdS2mjlkRS8NIn-31" vertex="1"><mxGeometry x="282.5" y="360" width="180" height="30" as="geometry"/></mxCell><mxCell id="liFReSEdS2mjlkRS8NIn-35" value="密码：" style="text;html=1;strokeColor=none;fillColor=none;align=center;verticalAlign=middle;whiteSpace=wrap;rounded=0;sketch=0;fontColor=#143642;" parent="liFReSEdS2mjlkRS8NIn-31" vertex="1"><mxGeometry x="190" y="360" width="80" height="30" as="geometry"/></mxCell><mxCell id="liFReSEdS2mjlkRS8NIn-38" value="登 录" style="rounded=1;whiteSpace=wrap;html=1;sketch=0;strokeColor=#0F8B8D;fillColor=#FAE5C7;fontColor=#143642;" parent="liFReSEdS2mjlkRS8NIn-31" vertex="1"><mxGeometry x="230" y="665" width="100" height="30" as="geometry"/></mxCell><mxCell id="liFReSEdS2mjlkRS8NIn-39" value="&lt;span&gt;我 要&amp;nbsp;注 册&lt;/span&gt;" style="rounded=1;whiteSpace=wrap;html=1;sketch=0;strokeColor=#0F8B8D;fillColor=#FAE5C7;fontColor=#143642;" parent="liFReSEdS2mjlkRS8NIn-31" vertex="1"><mxGeometry x="360" y="665" width="100" height="30" as="geometry"/></mxCell><mxCell id="228" value="" style="rounded=0;whiteSpace=wrap;html=1;sketch=0;strokeColor=#0F8B8D;fillColor=#FAE5C7;fontColor=#143642;" parent="liFReSEdS2mjlkRS8NIn-31" vertex="1"><mxGeometry x="282.5" y="515" width="207.5" height="30" as="geometry"/></mxCell><mxCell id="229" value="你的昵称：" style="text;html=1;strokeColor=none;fillColor=none;align=center;verticalAlign=middle;whiteSpace=wrap;rounded=0;sketch=0;fontColor=#143642;" parent="liFReSEdS2mjlkRS8NIn-31" vertex="1"><mxGeometry x="190" y="515" width="80" height="30" as="geometry"/></mxCell><mxCell id="231" value="北京城&amp;nbsp; &amp;nbsp; &amp;nbsp; &amp;nbsp;&amp;nbsp;" style="rounded=0;whiteSpace=wrap;html=1;sketch=0;strokeColor=#0F8B8D;fillColor=#FAE5C7;fontColor=#143642;align=center;" parent="liFReSEdS2mjlkRS8NIn-31" vertex="1"><mxGeometry x="282.5" y="565" width="207.5" height="30" as="geometry"/></mxCell><mxCell id="232" value="出生城市：" style="text;html=1;strokeColor=none;fillColor=none;align=center;verticalAlign=middle;whiteSpace=wrap;rounded=0;sketch=0;fontColor=#143642;" parent="liFReSEdS2mjlkRS8NIn-31" vertex="1"><mxGeometry x="190" y="565" width="80" height="30" as="geometry"/></mxCell><mxCell id="233" value="男性&amp;nbsp; &amp;nbsp; &amp;nbsp;&amp;nbsp;" style="rounded=0;whiteSpace=wrap;html=1;sketch=0;strokeColor=#0F8B8D;fillColor=#FAE5C7;fontColor=#143642;" parent="liFReSEdS2mjlkRS8NIn-31" vertex="1"><mxGeometry x="282.5" y="615" width="207.5" height="30" as="geometry"/></mxCell><mxCell id="234" value="性别：" style="text;html=1;strokeColor=none;fillColor=none;align=center;verticalAlign=middle;whiteSpace=wrap;rounded=0;sketch=0;fontColor=#143642;" parent="liFReSEdS2mjlkRS8NIn-31" vertex="1"><mxGeometry x="190" y="615" width="80" height="30" as="geometry"/></mxCell><mxCell id="235" style="edgeStyle=orthogonalEdgeStyle;curved=0;rounded=1;sketch=0;orthogonalLoop=1;jettySize=auto;html=1;strokeColor=#A8201A;fillColor=#FAE5C7;fontColor=#143642;" parent="liFReSEdS2mjlkRS8NIn-31" source="236" target="228" edge="1"><mxGeometry relative="1" as="geometry"/></mxCell><mxCell id="236" value="只支持中英文和 .&amp;nbsp;符号" style="text;html=1;strokeColor=#b85450;fillColor=#f8cecc;align=center;verticalAlign=middle;whiteSpace=wrap;rounded=0;sketch=0;" parent="liFReSEdS2mjlkRS8NIn-31" vertex="1"><mxGeometry x="560" y="515" width="80" height="30" as="geometry"/></mxCell><mxCell id="237" value="" style="triangle;whiteSpace=wrap;html=1;rounded=0;sketch=0;strokeColor=#0F8B8D;fillColor=#FAE5C7;fontColor=#143642;rotation=90;" parent="liFReSEdS2mjlkRS8NIn-31" vertex="1"><mxGeometry x="470" y="570" width="10" height="20" as="geometry"/></mxCell><mxCell id="238" style="edgeStyle=orthogonalEdgeStyle;curved=0;rounded=1;sketch=0;orthogonalLoop=1;jettySize=auto;html=1;strokeColor=#A8201A;fillColor=#FAE5C7;fontColor=#143642;" parent="liFReSEdS2mjlkRS8NIn-31" source="239" target="231" edge="1"><mxGeometry relative="1" as="geometry"/></mxCell><mxCell id="239" value="下拉框" style="text;html=1;strokeColor=#b85450;fillColor=#f8cecc;align=center;verticalAlign=middle;whiteSpace=wrap;rounded=0;sketch=0;" parent="liFReSEdS2mjlkRS8NIn-31" vertex="1"><mxGeometry x="560" y="565" width="80" height="30" as="geometry"/></mxCell><mxCell id="240" value="" style="triangle;whiteSpace=wrap;html=1;rounded=0;sketch=0;strokeColor=#0F8B8D;fillColor=#FAE5C7;fontColor=#143642;rotation=90;" parent="liFReSEdS2mjlkRS8NIn-31" vertex="1"><mxGeometry x="470" y="620" width="10" height="20" as="geometry"/></mxCell><mxCell id="241" value="&lt;font color=&quot;#707070&quot;&gt;请输入他人赠予的激活码&lt;/font&gt;" style="rounded=0;whiteSpace=wrap;html=1;sketch=0;strokeColor=#0F8B8D;fillColor=#FAE5C7;fontColor=#143642;align=left;" parent="liFReSEdS2mjlkRS8NIn-31" vertex="1"><mxGeometry x="282.5" y="465" width="207.5" height="30" as="geometry"/></mxCell><mxCell id="242" value="激活码：" style="text;html=1;strokeColor=none;fillColor=none;align=center;verticalAlign=middle;whiteSpace=wrap;rounded=0;sketch=0;fontColor=#143642;" parent="liFReSEdS2mjlkRS8NIn-31" vertex="1"><mxGeometry x="190" y="465" width="80" height="30" as="geometry"/></mxCell><mxCell id="243" value="" style="whiteSpace=wrap;html=1;aspect=fixed;labelBackgroundColor=#BD96FF;textOpacity=20;fillColor=#fff2cc;strokeColor=#d6b656;" parent="liFReSEdS2mjlkRS8NIn-31" vertex="1"><mxGeometry x="284.5" y="415" width="20" height="20" as="geometry"/></mxCell><mxCell id="244" value="首次游玩本游戏" style="text;html=1;strokeColor=none;fillColor=none;align=left;verticalAlign=middle;whiteSpace=wrap;rounded=0;fontColor=#1F1F1F;" parent="liFReSEdS2mjlkRS8NIn-31" vertex="1"><mxGeometry x="327.5" y="415" width="122.5" height="20" as="geometry"/></mxCell><mxCell id="245" value="" style="verticalLabelPosition=bottom;verticalAlign=top;html=1;shape=mxgraph.basic.tick;labelBackgroundColor=#BD96FF;fontColor=#1F1F1F;" parent="liFReSEdS2mjlkRS8NIn-31" vertex="1"><mxGeometry x="282.5" y="415" width="22" height="20" as="geometry"/></mxCell><mxCell id="246" style="edgeStyle=orthogonalEdgeStyle;rounded=0;orthogonalLoop=1;jettySize=auto;html=1;fontColor=#1F1F1F;" parent="liFReSEdS2mjlkRS8NIn-31" source="247" target="244" edge="1"><mxGeometry relative="1" as="geometry"/></mxCell><mxCell id="247" value="勾选本项，显示下列项目" style="text;html=1;strokeColor=#b85450;fillColor=#f8cecc;align=center;verticalAlign=middle;whiteSpace=wrap;rounded=0;sketch=0;" parent="liFReSEdS2mjlkRS8NIn-31" vertex="1"><mxGeometry x="540" y="410" width="80" height="30" as="geometry"/></mxCell><mxCell id="liFReSEdS2mjlkRS8NIn-40" value="开始页" parent="0" visible="0"/><mxCell id="7vL6fOs8hRScU_4NojgC-194" value="" style="rounded=1;whiteSpace=wrap;html=1;fillColor=#f5f5f5;strokeColor=#666666;fontColor=#333333;" parent="liFReSEdS2mjlkRS8NIn-40" vertex="1"><mxGeometry x="285" y="130" width="120" height="120" as="geometry"/></mxCell><mxCell id="7vL6fOs8hRScU_4NojgC-195" value="头像" style="ellipse;whiteSpace=wrap;html=1;aspect=fixed;" parent="liFReSEdS2mjlkRS8NIn-40" vertex="1"><mxGeometry x="305" y="150" width="80" height="80" as="geometry"/></mxCell><mxCell id="7vL6fOs8hRScU_4NojgC-196" value="" style="rounded=0;whiteSpace=wrap;html=1;sketch=0;strokeColor=#0F8B8D;fillColor=#FAE5C7;fontColor=#143642;" parent="liFReSEdS2mjlkRS8NIn-40" vertex="1"><mxGeometry x="160" y="80" width="360" height="40" as="geometry"/></mxCell><mxCell id="7vL6fOs8hRScU_4NojgC-197" value="&lt;font color=&quot;#000000&quot;&gt;728&amp;nbsp;年 4&amp;nbsp;月 1&amp;nbsp;日&amp;nbsp;傍晚&lt;/font&gt;" style="text;html=1;strokeColor=none;fillColor=none;align=center;verticalAlign=middle;whiteSpace=wrap;rounded=0;sketch=0;fontColor=#143642;" parent="liFReSEdS2mjlkRS8NIn-40" vertex="1"><mxGeometry x="160" y="80" width="130" height="40" as="geometry"/></mxCell><mxCell id="7vL6fOs8hRScU_4NojgC-198" value="土地 42000" style="text;html=1;strokeColor=none;fillColor=none;align=center;verticalAlign=middle;whiteSpace=wrap;rounded=0;sketch=0;fontColor=#143642;" parent="liFReSEdS2mjlkRS8NIn-40" vertex="1"><mxGeometry x="410" y="80" width="110" height="40" as="geometry"/></mxCell><mxCell id="7vL6fOs8hRScU_4NojgC-199" value="&lt;font color=&quot;#3e29ff&quot;&gt;&lt;b&gt;灵魂诞生之地&lt;/b&gt;&lt;/font&gt;" style="text;html=1;strokeColor=none;fillColor=none;align=center;verticalAlign=middle;whiteSpace=wrap;rounded=0;sketch=0;fontColor=#143642;" parent="liFReSEdS2mjlkRS8NIn-40" vertex="1"><mxGeometry x="285" y="80" width="125" height="40" as="geometry"/></mxCell><mxCell id="7vL6fOs8hRScU_4NojgC-201" style="edgeStyle=orthogonalEdgeStyle;rounded=0;orthogonalLoop=1;jettySize=auto;html=1;fillColor=#f8cecc;strokeColor=#b85450;curved=1;" parent="liFReSEdS2mjlkRS8NIn-40" source="7vL6fOs8hRScU_4NojgC-200" target="7vL6fOs8hRScU_4NojgC-194" edge="1"><mxGeometry relative="1" as="geometry"/></mxCell><mxCell id="7vL6fOs8hRScU_4NojgC-200" value="玩家选择头像" style="text;html=1;strokeColor=#b85450;fillColor=#f8cecc;align=center;verticalAlign=middle;whiteSpace=wrap;rounded=0;sketch=0;" parent="liFReSEdS2mjlkRS8NIn-40" vertex="1"><mxGeometry x="540" y="165" width="120" height="50" as="geometry"/></mxCell><mxCell id="liFReSEdS2mjlkRS8NIn-145" value="本地.背景" parent="0"/><mxCell id="liFReSEdS2mjlkRS8NIn-146" value="" style="rounded=0;whiteSpace=wrap;html=1;sketch=0;strokeColor=#0F8B8D;fillColor=#FAE5C7;fontColor=#143642;" parent="liFReSEdS2mjlkRS8NIn-145" vertex="1"><mxGeometry x="160" y="80" width="360" height="40" as="geometry"/></mxCell><mxCell id="liFReSEdS2mjlkRS8NIn-147" value="&lt;font color=&quot;#000000&quot;&gt;728&amp;nbsp;年 4&amp;nbsp;月 1&amp;nbsp;日&amp;nbsp;傍晚&lt;/font&gt;" style="text;html=1;strokeColor=none;fillColor=none;align=center;verticalAlign=middle;whiteSpace=wrap;rounded=0;sketch=0;fontColor=#143642;" parent="liFReSEdS2mjlkRS8NIn-145" vertex="1"><mxGeometry x="160" y="80" width="130" height="40" as="geometry"/></mxCell><mxCell id="liFReSEdS2mjlkRS8NIn-148" style="edgeStyle=orthogonalEdgeStyle;curved=0;rounded=1;sketch=0;orthogonalLoop=1;jettySize=auto;html=1;strokeColor=#A8201A;fillColor=#FAE5C7;fontColor=#143642;" parent="liFReSEdS2mjlkRS8NIn-145" source="liFReSEdS2mjlkRS8NIn-149" target="liFReSEdS2mjlkRS8NIn-152" edge="1"><mxGeometry relative="1" as="geometry"/></mxCell><mxCell id="liFReSEdS2mjlkRS8NIn-149" value="每座城市&amp;nbsp;Icon 可能不一样" style="text;html=1;strokeColor=#b85450;fillColor=#f8cecc;align=center;verticalAlign=middle;whiteSpace=wrap;rounded=0;sketch=0;" parent="liFReSEdS2mjlkRS8NIn-145" vertex="1"><mxGeometry x="30" y="165" width="100" height="60" as="geometry"/></mxCell><mxCell id="liFReSEdS2mjlkRS8NIn-151" value="&lt;b&gt;&lt;font color=&quot;#3e29ff&quot;&gt;十二级.长安城&lt;/font&gt;&lt;/b&gt;" style="text;html=1;strokeColor=none;fillColor=none;align=center;verticalAlign=middle;whiteSpace=wrap;rounded=0;sketch=0;fontColor=#143642;" parent="liFReSEdS2mjlkRS8NIn-145" vertex="1"><mxGeometry x="400" y="80" width="120" height="40" as="geometry"/></mxCell><mxCell id="liFReSEdS2mjlkRS8NIn-152" value="&lt;font color=&quot;#919191&quot;&gt;城市&amp;nbsp;Icon&lt;br&gt;&lt;/font&gt;" style="rounded=0;whiteSpace=wrap;html=1;sketch=0;strokeColor=#666666;fillColor=#f5f5f5;fontColor=#333333;" parent="liFReSEdS2mjlkRS8NIn-145" vertex="1"><mxGeometry x="180" y="140" width="110" height="110" as="geometry"/></mxCell><mxCell id="liFReSEdS2mjlkRS8NIn-153" value="广 场" style="rounded=0;whiteSpace=wrap;html=1;sketch=0;strokeColor=#0F8B8D;fillColor=#FAE5C7;fontColor=#143642;" parent="liFReSEdS2mjlkRS8NIn-145" vertex="1"><mxGeometry x="180" y="260" width="110" height="40" as="geometry"/></mxCell><mxCell id="liFReSEdS2mjlkRS8NIn-154" value="市 集" style="rounded=0;whiteSpace=wrap;html=1;sketch=0;strokeColor=#0F8B8D;fillColor=#FAE5C7;fontColor=#143642;" parent="liFReSEdS2mjlkRS8NIn-145" vertex="1"><mxGeometry x="180" y="300" width="110" height="40" as="geometry"/></mxCell><mxCell id="liFReSEdS2mjlkRS8NIn-157" value="仓 库" style="rounded=0;whiteSpace=wrap;html=1;sketch=0;strokeColor=#0F8B8D;fillColor=#FAE5C7;fontColor=#143642;" parent="liFReSEdS2mjlkRS8NIn-145" vertex="1"><mxGeometry x="180" y="340" width="110" height="40" as="geometry"/></mxCell><mxCell id="liFReSEdS2mjlkRS8NIn-158" value="工 作" style="rounded=0;whiteSpace=wrap;html=1;sketch=0;strokeColor=#0F8B8D;fillColor=#FAE5C7;fontColor=#143642;" parent="liFReSEdS2mjlkRS8NIn-145" vertex="1"><mxGeometry x="180" y="380" width="110" height="40" as="geometry"/></mxCell><mxCell id="32" value="不 动 产" style="rounded=0;whiteSpace=wrap;html=1;sketch=0;strokeColor=#0F8B8D;fillColor=#FAE5C7;fontColor=#143642;" parent="liFReSEdS2mjlkRS8NIn-145" vertex="1"><mxGeometry x="180" y="420" width="110" height="40" as="geometry"/></mxCell><mxCell id="61" value="精力：12（62%）" style="text;html=1;strokeColor=none;fillColor=none;align=left;verticalAlign=middle;whiteSpace=wrap;rounded=0;sketch=0;fontColor=#143642;" parent="liFReSEdS2mjlkRS8NIn-145" vertex="1"><mxGeometry x="180" y="550" width="110" height="30" as="geometry"/></mxCell><mxCell id="62" value="饥饿：24（24%）" style="text;html=1;strokeColor=none;fillColor=none;align=left;verticalAlign=middle;whiteSpace=wrap;rounded=0;sketch=0;fontColor=#143642;" parent="liFReSEdS2mjlkRS8NIn-145" vertex="1"><mxGeometry x="180" y="580" width="110" height="30" as="geometry"/></mxCell><mxCell id="64" style="edgeStyle=orthogonalEdgeStyle;rounded=0;orthogonalLoop=1;jettySize=auto;html=1;fillColor=#f8cecc;strokeColor=#b85450;" parent="liFReSEdS2mjlkRS8NIn-145" source="63" target="61" edge="1"><mxGeometry relative="1" as="geometry"/></mxCell><mxCell id="63" value="数值&lt;br&gt;剩余百分比（整数位）" style="text;html=1;strokeColor=#b85450;fillColor=#f8cecc;align=left;verticalAlign=middle;whiteSpace=wrap;rounded=0;sketch=0;" parent="liFReSEdS2mjlkRS8NIn-145" vertex="1"><mxGeometry x="20" y="540" width="100" height="50" as="geometry"/></mxCell><mxCell id="65" value="健康：60（100%）" style="text;html=1;strokeColor=none;fillColor=none;align=left;verticalAlign=middle;whiteSpace=wrap;rounded=0;sketch=0;fontColor=#143642;" parent="liFReSEdS2mjlkRS8NIn-145" vertex="1"><mxGeometry x="180" y="610" width="110" height="30" as="geometry"/></mxCell><mxCell id="67" value="公孙乌龙（男）" style="text;html=1;strokeColor=none;fillColor=none;align=left;verticalAlign=middle;whiteSpace=wrap;rounded=0;sketch=0;fontColor=#143642;" parent="liFReSEdS2mjlkRS8NIn-145" vertex="1"><mxGeometry x="180" y="520" width="110" height="30" as="geometry"/></mxCell><mxCell id="7vL6fOs8hRScU_4NojgC-202" value="签&amp;nbsp; 到" style="rounded=1;whiteSpace=wrap;html=1;sketch=0;strokeColor=#0F8B8D;fillColor=#FAE5C7;fontColor=#143642;" parent="liFReSEdS2mjlkRS8NIn-145" vertex="1"><mxGeometry x="180" y="680" width="100" height="30" as="geometry"/></mxCell><mxCell id="7vL6fOs8hRScU_4NojgC-204" style="edgeStyle=orthogonalEdgeStyle;curved=1;rounded=0;orthogonalLoop=1;jettySize=auto;html=1;fillColor=#f8cecc;strokeColor=#b85450;" parent="liFReSEdS2mjlkRS8NIn-145" source="7vL6fOs8hRScU_4NojgC-203" target="7vL6fOs8hRScU_4NojgC-202" edge="1"><mxGeometry relative="1" as="geometry"/></mxCell><mxCell id="7vL6fOs8hRScU_4NojgC-203" value="点击弹框提示签到奖励。&lt;br&gt;如果今日已签到，则隐藏该按钮" style="text;html=1;strokeColor=#b85450;fillColor=#f8cecc;align=left;verticalAlign=middle;whiteSpace=wrap;rounded=0;sketch=0;" parent="liFReSEdS2mjlkRS8NIn-145" vertex="1"><mxGeometry x="10" y="635" width="140" height="60" as="geometry"/></mxCell><mxCell id="288" value="快乐：60（100%）" style="text;html=1;strokeColor=none;fillColor=none;align=left;verticalAlign=middle;whiteSpace=wrap;rounded=0;sketch=0;fontColor=#143642;" parent="liFReSEdS2mjlkRS8NIn-145" vertex="1"><mxGeometry x="180" y="640" width="110" height="30" as="geometry"/></mxCell><mxCell id="327" value="世 界" style="rounded=0;whiteSpace=wrap;html=1;sketch=0;strokeColor=#0F8B8D;fillColor=#FAE5C7;fontColor=#143642;" vertex="1" parent="liFReSEdS2mjlkRS8NIn-145"><mxGeometry x="180" y="460" width="110" height="40" as="geometry"/></mxCell><mxCell id="liFReSEdS2mjlkRS8NIn-59" value="本地.广场(默认页)" style="" parent="0" visible="0"/><mxCell id="liFReSEdS2mjlkRS8NIn-177" value="" style="rounded=0;whiteSpace=wrap;html=1;sketch=0;strokeColor=#0F8B8D;fillColor=#FAE5C7;fontColor=#143642;" parent="liFReSEdS2mjlkRS8NIn-59" vertex="1"><mxGeometry x="300" y="300" width="210" height="440" as="geometry"/></mxCell><mxCell id="liFReSEdS2mjlkRS8NIn-178" value="" style="group" parent="liFReSEdS2mjlkRS8NIn-59" vertex="1" connectable="0"><mxGeometry x="300" y="300" width="210" height="50" as="geometry"/></mxCell><mxCell id="liFReSEdS2mjlkRS8NIn-179" value="今天是荒野余生发布的第一天哟！" style="rounded=0;whiteSpace=wrap;html=1;sketch=0;strokeColor=#0F8B8D;fillColor=#FAE5C7;fontColor=#143642;align=left;verticalAlign=top;" parent="liFReSEdS2mjlkRS8NIn-178" vertex="1"><mxGeometry width="210" height="50" as="geometry"/></mxCell><mxCell id="liFReSEdS2mjlkRS8NIn-180" value="喝彩(42)" style="text;html=1;strokeColor=none;fillColor=none;align=center;verticalAlign=middle;whiteSpace=wrap;rounded=0;sketch=0;fontColor=#143642;" parent="liFReSEdS2mjlkRS8NIn-178" vertex="1"><mxGeometry x="10" y="23.333333333333336" width="55" height="26.666666666666668" as="geometry"/></mxCell><mxCell id="liFReSEdS2mjlkRS8NIn-181" value="嘘声(0)" style="text;html=1;strokeColor=none;fillColor=none;align=center;verticalAlign=middle;whiteSpace=wrap;rounded=0;sketch=0;fontColor=#143642;" parent="liFReSEdS2mjlkRS8NIn-178" vertex="1"><mxGeometry x="140" y="23.333333333333336" width="55" height="26.666666666666668" as="geometry"/></mxCell><mxCell id="liFReSEdS2mjlkRS8NIn-182" value="" style="group" parent="liFReSEdS2mjlkRS8NIn-59" vertex="1" connectable="0"><mxGeometry x="300" y="350" width="210" height="80" as="geometry"/></mxCell><mxCell id="liFReSEdS2mjlkRS8NIn-183" value="自从我来到这里，我发现在座的各位，就没一个好人，哼╭(╯^╰)╮！我看你们都是觊觎我的地产。" style="rounded=0;whiteSpace=wrap;html=1;sketch=0;strokeColor=#0F8B8D;fillColor=#FAE5C7;fontColor=#143642;align=left;verticalAlign=top;" parent="liFReSEdS2mjlkRS8NIn-182" vertex="1"><mxGeometry width="210" height="80" as="geometry"/></mxCell><mxCell id="liFReSEdS2mjlkRS8NIn-184" value="喝彩(42)" style="text;html=1;strokeColor=none;fillColor=none;align=center;verticalAlign=middle;whiteSpace=wrap;rounded=0;sketch=0;fontColor=#143642;" parent="liFReSEdS2mjlkRS8NIn-182" vertex="1"><mxGeometry x="10" y="53.333333333333336" width="55" height="26.666666666666668" as="geometry"/></mxCell><mxCell id="liFReSEdS2mjlkRS8NIn-185" value="嘘声(0)" style="text;html=1;strokeColor=none;fillColor=none;align=center;verticalAlign=middle;whiteSpace=wrap;rounded=0;sketch=0;fontColor=#143642;" parent="liFReSEdS2mjlkRS8NIn-182" vertex="1"><mxGeometry x="140" y="53.333333333333336" width="55" height="26.666666666666668" as="geometry"/></mxCell><mxCell id="liFReSEdS2mjlkRS8NIn-186" style="edgeStyle=orthogonalEdgeStyle;curved=0;rounded=1;sketch=0;orthogonalLoop=1;jettySize=auto;html=1;strokeColor=#A8201A;fillColor=#FAE5C7;fontColor=#143642;" parent="liFReSEdS2mjlkRS8NIn-59" source="liFReSEdS2mjlkRS8NIn-188" target="liFReSEdS2mjlkRS8NIn-179" edge="1"><mxGeometry relative="1" as="geometry"/></mxCell><mxCell id="liFReSEdS2mjlkRS8NIn-187" style="edgeStyle=orthogonalEdgeStyle;curved=0;rounded=1;sketch=0;orthogonalLoop=1;jettySize=auto;html=1;strokeColor=#A8201A;fillColor=#FAE5C7;fontColor=#143642;" parent="liFReSEdS2mjlkRS8NIn-59" source="liFReSEdS2mjlkRS8NIn-188" target="liFReSEdS2mjlkRS8NIn-183" edge="1"><mxGeometry relative="1" as="geometry"/></mxCell><mxCell id="liFReSEdS2mjlkRS8NIn-188" value="玩家可以在这里演讲，消耗精力，会被别的玩家看到" style="text;html=1;strokeColor=#b85450;fillColor=#f8cecc;align=center;verticalAlign=middle;whiteSpace=wrap;rounded=0;sketch=0;" parent="liFReSEdS2mjlkRS8NIn-59" vertex="1"><mxGeometry x="570" y="310" width="100" height="80" as="geometry"/></mxCell><mxCell id="liFReSEdS2mjlkRS8NIn-189" value="我 要 演 讲" style="rounded=1;whiteSpace=wrap;html=1;sketch=0;strokeColor=#0F8B8D;fillColor=#FAE5C7;fontColor=#143642;align=center;" parent="liFReSEdS2mjlkRS8NIn-59" vertex="1"><mxGeometry x="310" y="265" width="190" height="30" as="geometry"/></mxCell><mxCell id="liFReSEdS2mjlkRS8NIn-190" style="edgeStyle=orthogonalEdgeStyle;curved=0;rounded=1;sketch=0;orthogonalLoop=1;jettySize=auto;html=1;strokeColor=#A8201A;fillColor=#FAE5C7;fontColor=#143642;" parent="liFReSEdS2mjlkRS8NIn-59" source="liFReSEdS2mjlkRS8NIn-191" target="liFReSEdS2mjlkRS8NIn-192" edge="1"><mxGeometry relative="1" as="geometry"/></mxCell><mxCell id="liFReSEdS2mjlkRS8NIn-191" value="如果还有，可以往下翻。&lt;br&gt;如果没了，就显示：&lt;span style=&quot;color: rgb(133 , 133 , 133)&quot;&gt;到尽头啦！&lt;/span&gt;" style="text;html=1;strokeColor=#b85450;fillColor=#f8cecc;align=center;verticalAlign=middle;whiteSpace=wrap;rounded=0;sketch=0;" parent="liFReSEdS2mjlkRS8NIn-59" vertex="1"><mxGeometry x="540" y="650" width="150" height="80" as="geometry"/></mxCell><mxCell id="liFReSEdS2mjlkRS8NIn-192" value="&lt;font color=&quot;#858585&quot;&gt;后面还有，翻翻看？&lt;/font&gt;" style="text;html=1;strokeColor=none;fillColor=none;align=center;verticalAlign=middle;whiteSpace=wrap;rounded=0;sketch=0;fontColor=#143642;" parent="liFReSEdS2mjlkRS8NIn-59" vertex="1"><mxGeometry x="320" y="700" width="180" height="30" as="geometry"/></mxCell><mxCell id="liFReSEdS2mjlkRS8NIn-193" value="" style="rounded=0;whiteSpace=wrap;html=1;sketch=0;strokeColor=#0F8B8D;fillColor=#FAE5C7;fontColor=#143642;" parent="liFReSEdS2mjlkRS8NIn-59" vertex="1"><mxGeometry x="300" y="300" width="210" height="440" as="geometry"/></mxCell><mxCell id="liFReSEdS2mjlkRS8NIn-194" value="" style="group" parent="liFReSEdS2mjlkRS8NIn-59" vertex="1" connectable="0"><mxGeometry x="300" y="300" width="210" height="50" as="geometry"/></mxCell><mxCell id="liFReSEdS2mjlkRS8NIn-195" value="今天是荒野余生发布的第一天哟！" style="rounded=0;whiteSpace=wrap;html=1;sketch=0;strokeColor=#0F8B8D;fillColor=#FAE5C7;fontColor=#143642;align=left;verticalAlign=top;" parent="liFReSEdS2mjlkRS8NIn-194" vertex="1"><mxGeometry width="210" height="50" as="geometry"/></mxCell><mxCell id="liFReSEdS2mjlkRS8NIn-196" value="喝彩(42)" style="text;html=1;strokeColor=none;fillColor=none;align=center;verticalAlign=middle;whiteSpace=wrap;rounded=0;sketch=0;fontColor=#143642;" parent="liFReSEdS2mjlkRS8NIn-194" vertex="1"><mxGeometry x="10" y="23.333333333333336" width="55" height="26.666666666666668" as="geometry"/></mxCell><mxCell id="liFReSEdS2mjlkRS8NIn-197" value="嘘声(0)" style="text;html=1;strokeColor=none;fillColor=none;align=center;verticalAlign=middle;whiteSpace=wrap;rounded=0;sketch=0;fontColor=#143642;" parent="liFReSEdS2mjlkRS8NIn-194" vertex="1"><mxGeometry x="140" y="23.333333333333336" width="55" height="26.666666666666668" as="geometry"/></mxCell><mxCell id="liFReSEdS2mjlkRS8NIn-198" value="" style="group" parent="liFReSEdS2mjlkRS8NIn-59" vertex="1" connectable="0"><mxGeometry x="300" y="350" width="210" height="80" as="geometry"/></mxCell><mxCell id="liFReSEdS2mjlkRS8NIn-199" value="自从我来到这里，我发现在座的各位，就没一个好人，哼╭(╯^╰)╮！我看你们都是觊觎我的地产。" style="rounded=0;whiteSpace=wrap;html=1;sketch=0;strokeColor=#0F8B8D;fillColor=#FAE5C7;fontColor=#143642;align=left;verticalAlign=top;" parent="liFReSEdS2mjlkRS8NIn-198" vertex="1"><mxGeometry width="210" height="80" as="geometry"/></mxCell><mxCell id="liFReSEdS2mjlkRS8NIn-200" value="喝彩(42)" style="text;html=1;strokeColor=none;fillColor=none;align=center;verticalAlign=middle;whiteSpace=wrap;rounded=0;sketch=0;fontColor=#143642;" parent="liFReSEdS2mjlkRS8NIn-198" vertex="1"><mxGeometry x="10" y="53.333333333333336" width="55" height="26.666666666666668" as="geometry"/></mxCell><mxCell id="liFReSEdS2mjlkRS8NIn-201" value="嘘声(0)" style="text;html=1;strokeColor=none;fillColor=none;align=center;verticalAlign=middle;whiteSpace=wrap;rounded=0;sketch=0;fontColor=#143642;" parent="liFReSEdS2mjlkRS8NIn-198" vertex="1"><mxGeometry x="140" y="53.333333333333336" width="55" height="26.666666666666668" as="geometry"/></mxCell><mxCell id="liFReSEdS2mjlkRS8NIn-202" style="edgeStyle=orthogonalEdgeStyle;curved=0;rounded=1;sketch=0;orthogonalLoop=1;jettySize=auto;html=1;strokeColor=#A8201A;fillColor=#FAE5C7;fontColor=#143642;" parent="liFReSEdS2mjlkRS8NIn-59" source="liFReSEdS2mjlkRS8NIn-204" target="liFReSEdS2mjlkRS8NIn-195" edge="1"><mxGeometry relative="1" as="geometry"/></mxCell><mxCell id="liFReSEdS2mjlkRS8NIn-203" style="edgeStyle=orthogonalEdgeStyle;curved=0;rounded=1;sketch=0;orthogonalLoop=1;jettySize=auto;html=1;strokeColor=#A8201A;fillColor=#FAE5C7;fontColor=#143642;" parent="liFReSEdS2mjlkRS8NIn-59" source="liFReSEdS2mjlkRS8NIn-204" target="liFReSEdS2mjlkRS8NIn-199" edge="1"><mxGeometry relative="1" as="geometry"/></mxCell><mxCell id="liFReSEdS2mjlkRS8NIn-204" value="玩家可以在这里演讲，消耗精力，会被别的玩家看到" style="text;html=1;strokeColor=#b85450;fillColor=#f8cecc;align=center;verticalAlign=middle;whiteSpace=wrap;rounded=0;sketch=0;" parent="liFReSEdS2mjlkRS8NIn-59" vertex="1"><mxGeometry x="570" y="310" width="100" height="80" as="geometry"/></mxCell><mxCell id="liFReSEdS2mjlkRS8NIn-205" value="我 要 演 讲" style="rounded=1;whiteSpace=wrap;html=1;sketch=0;strokeColor=#0F8B8D;fillColor=#FAE5C7;fontColor=#143642;align=center;" parent="liFReSEdS2mjlkRS8NIn-59" vertex="1"><mxGeometry x="310" y="265" width="190" height="30" as="geometry"/></mxCell><mxCell id="liFReSEdS2mjlkRS8NIn-206" style="edgeStyle=orthogonalEdgeStyle;curved=0;rounded=1;sketch=0;orthogonalLoop=1;jettySize=auto;html=1;strokeColor=#A8201A;fillColor=#FAE5C7;fontColor=#143642;" parent="liFReSEdS2mjlkRS8NIn-59" source="liFReSEdS2mjlkRS8NIn-207" target="liFReSEdS2mjlkRS8NIn-208" edge="1"><mxGeometry relative="1" as="geometry"/></mxCell><mxCell id="liFReSEdS2mjlkRS8NIn-207" value="如果还有，可以往下翻。&lt;br&gt;如果没了，就显示：&lt;span style=&quot;color: rgb(133 , 133 , 133)&quot;&gt;到尽头啦！&lt;/span&gt;" style="text;html=1;strokeColor=#b85450;fillColor=#f8cecc;align=center;verticalAlign=middle;whiteSpace=wrap;rounded=0;sketch=0;" parent="liFReSEdS2mjlkRS8NIn-59" vertex="1"><mxGeometry x="540" y="650" width="150" height="80" as="geometry"/></mxCell><mxCell id="liFReSEdS2mjlkRS8NIn-208" value="&lt;font color=&quot;#858585&quot;&gt;后面还有，翻翻看？&lt;/font&gt;" style="text;html=1;strokeColor=none;fillColor=none;align=center;verticalAlign=middle;whiteSpace=wrap;rounded=0;sketch=0;fontColor=#143642;" parent="liFReSEdS2mjlkRS8NIn-59" vertex="1"><mxGeometry x="320" y="700" width="180" height="30" as="geometry"/></mxCell><mxCell id="284" value="荒地：425" style="text;html=1;strokeColor=none;fillColor=none;align=left;verticalAlign=middle;whiteSpace=wrap;rounded=0;sketch=0;fontColor=#143642;" parent="liFReSEdS2mjlkRS8NIn-59" vertex="1"><mxGeometry x="320" y="140" width="180" height="30" as="geometry"/></mxCell><mxCell id="285" value="居民：726" style="text;html=1;strokeColor=none;fillColor=none;align=left;verticalAlign=middle;whiteSpace=wrap;rounded=0;sketch=0;fontColor=#143642;" parent="liFReSEdS2mjlkRS8NIn-59" vertex="1"><mxGeometry x="320" y="170" width="180" height="30" as="geometry"/></mxCell><mxCell id="286" value="城市等级：12 级" style="text;html=1;strokeColor=none;fillColor=none;align=left;verticalAlign=middle;whiteSpace=wrap;rounded=0;sketch=0;fontColor=#143642;" parent="liFReSEdS2mjlkRS8NIn-59" vertex="1"><mxGeometry x="320" y="200" width="180" height="30" as="geometry"/></mxCell><mxCell id="287" value="委员会：无" style="text;html=1;strokeColor=none;fillColor=none;align=left;verticalAlign=middle;whiteSpace=wrap;rounded=0;sketch=0;fontColor=#143642;" parent="liFReSEdS2mjlkRS8NIn-59" vertex="1"><mxGeometry x="320" y="230" width="180" height="30" as="geometry"/></mxCell><mxCell id="liFReSEdS2mjlkRS8NIn-105" value="本地.市集" parent="0" visible="0"/><mxCell id="liFReSEdS2mjlkRS8NIn-106" value="" style="rounded=0;whiteSpace=wrap;html=1;sketch=0;strokeColor=#0F8B8D;fillColor=#FAE5C7;fontColor=#143642;" parent="liFReSEdS2mjlkRS8NIn-105" vertex="1"><mxGeometry x="160" y="80" width="360" height="40" as="geometry"/></mxCell><mxCell id="liFReSEdS2mjlkRS8NIn-107" value="&lt;font color=&quot;#000000&quot;&gt;728&amp;nbsp;年 4&amp;nbsp;月 1&amp;nbsp;日&amp;nbsp;傍晚&lt;/font&gt;" style="text;html=1;strokeColor=none;fillColor=none;align=center;verticalAlign=middle;whiteSpace=wrap;rounded=0;sketch=0;fontColor=#143642;" parent="liFReSEdS2mjlkRS8NIn-105" vertex="1"><mxGeometry x="160" y="80" width="130" height="40" as="geometry"/></mxCell><mxCell id="liFReSEdS2mjlkRS8NIn-110" value="土地 42000" style="text;html=1;strokeColor=none;fillColor=none;align=center;verticalAlign=middle;whiteSpace=wrap;rounded=0;sketch=0;fontColor=#143642;" parent="liFReSEdS2mjlkRS8NIn-105" vertex="1"><mxGeometry x="410" y="80" width="110" height="40" as="geometry"/></mxCell><mxCell id="liFReSEdS2mjlkRS8NIn-111" value="&lt;b&gt;&lt;font color=&quot;#3e29ff&quot;&gt;十二级.长安城&lt;/font&gt;&lt;/b&gt;" style="text;html=1;strokeColor=none;fillColor=none;align=center;verticalAlign=middle;whiteSpace=wrap;rounded=0;sketch=0;fontColor=#143642;" parent="liFReSEdS2mjlkRS8NIn-105" vertex="1"><mxGeometry x="285" y="80" width="120" height="40" as="geometry"/></mxCell><mxCell id="liFReSEdS2mjlkRS8NIn-120" value="" style="rounded=0;whiteSpace=wrap;html=1;sketch=0;strokeColor=#0F8B8D;fillColor=#FAE5C7;fontColor=#143642;" parent="liFReSEdS2mjlkRS8NIn-105" vertex="1"><mxGeometry x="300" y="190" width="210" height="550" as="geometry"/></mxCell><mxCell id="liFReSEdS2mjlkRS8NIn-129" style="edgeStyle=orthogonalEdgeStyle;curved=0;rounded=1;sketch=0;orthogonalLoop=1;jettySize=auto;html=1;strokeColor=#A8201A;fillColor=#FAE5C7;fontColor=#143642;" parent="liFReSEdS2mjlkRS8NIn-105" source="liFReSEdS2mjlkRS8NIn-131" edge="1"><mxGeometry relative="1" as="geometry"><mxPoint x="510" y="200" as="targetPoint"/></mxGeometry></mxCell><mxCell id="liFReSEdS2mjlkRS8NIn-131" value="订单内容：&lt;br&gt;商品-当前数量&lt;br&gt;单位价格-交易剩余有效期(倒计时)" style="text;html=1;strokeColor=#b85450;fillColor=#f8cecc;align=left;verticalAlign=middle;whiteSpace=wrap;rounded=0;sketch=0;" parent="liFReSEdS2mjlkRS8NIn-105" vertex="1"><mxGeometry x="560" y="175" width="100" height="80" as="geometry"/></mxCell><mxCell id="liFReSEdS2mjlkRS8NIn-133" value="我 要&amp;nbsp;出 售" style="rounded=1;whiteSpace=wrap;html=1;sketch=0;strokeColor=#0F8B8D;fillColor=#FAE5C7;fontColor=#143642;align=center;" parent="liFReSEdS2mjlkRS8NIn-105" vertex="1"><mxGeometry x="310" y="140" width="90" height="30" as="geometry"/></mxCell><mxCell id="liFReSEdS2mjlkRS8NIn-134" style="edgeStyle=orthogonalEdgeStyle;curved=0;rounded=1;sketch=0;orthogonalLoop=1;jettySize=auto;html=1;strokeColor=#A8201A;fillColor=#FAE5C7;fontColor=#143642;" parent="liFReSEdS2mjlkRS8NIn-105" source="liFReSEdS2mjlkRS8NIn-135" target="liFReSEdS2mjlkRS8NIn-136" edge="1"><mxGeometry relative="1" as="geometry"/></mxCell><mxCell id="liFReSEdS2mjlkRS8NIn-135" value="如果还有，可以往下翻。&lt;br&gt;如果没了，就显示：&lt;span style=&quot;color: rgb(133 , 133 , 133)&quot;&gt;到尽头啦！&lt;/span&gt;" style="text;html=1;strokeColor=#b85450;fillColor=#f8cecc;align=center;verticalAlign=middle;whiteSpace=wrap;rounded=0;sketch=0;" parent="liFReSEdS2mjlkRS8NIn-105" vertex="1"><mxGeometry x="540" y="650" width="150" height="80" as="geometry"/></mxCell><mxCell id="liFReSEdS2mjlkRS8NIn-136" value="&lt;font color=&quot;#858585&quot;&gt;后面还有，翻翻看？&lt;/font&gt;" style="text;html=1;strokeColor=none;fillColor=none;align=center;verticalAlign=middle;whiteSpace=wrap;rounded=0;sketch=0;fontColor=#143642;" parent="liFReSEdS2mjlkRS8NIn-105" vertex="1"><mxGeometry x="320" y="700" width="180" height="30" as="geometry"/></mxCell><mxCell id="liFReSEdS2mjlkRS8NIn-137" value="交 易 记 录" style="rounded=1;whiteSpace=wrap;html=1;sketch=0;strokeColor=#0F8B8D;fillColor=#FAE5C7;fontColor=#143642;align=center;" parent="liFReSEdS2mjlkRS8NIn-105" vertex="1"><mxGeometry x="410" y="140" width="90" height="30" as="geometry"/></mxCell><mxCell id="liFReSEdS2mjlkRS8NIn-138" value="" style="rounded=0;whiteSpace=wrap;html=1;sketch=0;align=left;fillColor=#f5f5f5;strokeColor=#666666;fontColor=#333333;" parent="liFReSEdS2mjlkRS8NIn-105" vertex="1"><mxGeometry x="300" y="190" width="210" height="60" as="geometry"/></mxCell><mxCell id="liFReSEdS2mjlkRS8NIn-139" value="购买" style="rounded=1;whiteSpace=wrap;html=1;sketch=0;strokeColor=#0F8B8D;fillColor=#FAE5C7;fontColor=#143642;align=center;" parent="liFReSEdS2mjlkRS8NIn-105" vertex="1"><mxGeometry x="460" y="190" width="50" height="30" as="geometry"/></mxCell><mxCell id="liFReSEdS2mjlkRS8NIn-140" value="撤单" style="rounded=1;whiteSpace=wrap;html=1;sketch=0;strokeColor=#0F8B8D;fillColor=#FAE5C7;fontColor=#143642;align=center;" parent="liFReSEdS2mjlkRS8NIn-105" vertex="1"><mxGeometry x="460" y="220" width="50" height="30" as="geometry"/></mxCell><mxCell id="liFReSEdS2mjlkRS8NIn-141" value="大米" style="text;html=1;strokeColor=none;fillColor=none;align=center;verticalAlign=middle;whiteSpace=wrap;rounded=0;sketch=0;fontColor=#143642;" parent="liFReSEdS2mjlkRS8NIn-105" vertex="1"><mxGeometry x="300" y="190" width="70" height="30" as="geometry"/></mxCell><mxCell id="liFReSEdS2mjlkRS8NIn-142" value="价格：29&amp;nbsp;元/份" style="text;html=1;strokeColor=none;fillColor=none;align=center;verticalAlign=middle;whiteSpace=wrap;rounded=0;sketch=0;fontColor=#143642;" parent="liFReSEdS2mjlkRS8NIn-105" vertex="1"><mxGeometry x="300" y="220" width="100" height="30" as="geometry"/></mxCell><mxCell id="liFReSEdS2mjlkRS8NIn-143" value="582" style="text;html=1;strokeColor=none;fillColor=none;align=center;verticalAlign=middle;whiteSpace=wrap;rounded=0;sketch=0;fontColor=#143642;" parent="liFReSEdS2mjlkRS8NIn-105" vertex="1"><mxGeometry x="370" y="190" width="90" height="30" as="geometry"/></mxCell><mxCell id="liFReSEdS2mjlkRS8NIn-144" value="19:02:22" style="text;html=1;strokeColor=none;fillColor=none;align=center;verticalAlign=middle;whiteSpace=wrap;rounded=0;sketch=0;fontColor=#143642;" parent="liFReSEdS2mjlkRS8NIn-105" vertex="1"><mxGeometry x="400" y="220" width="60" height="30" as="geometry"/></mxCell><mxCell id="liFReSEdS2mjlkRS8NIn-209" value="本地.背包" parent="0" visible="0"/><mxCell id="liFReSEdS2mjlkRS8NIn-210" value="" style="rounded=0;whiteSpace=wrap;html=1;sketch=0;strokeColor=#0F8B8D;fillColor=#FAE5C7;fontColor=#143642;" parent="liFReSEdS2mjlkRS8NIn-209" vertex="1"><mxGeometry x="160" y="80" width="360" height="40" as="geometry"/></mxCell><mxCell id="liFReSEdS2mjlkRS8NIn-211" value="&lt;font color=&quot;#000000&quot;&gt;728&amp;nbsp;年 4&amp;nbsp;月 1&amp;nbsp;日&amp;nbsp;傍晚&lt;/font&gt;" style="text;html=1;strokeColor=none;fillColor=none;align=center;verticalAlign=middle;whiteSpace=wrap;rounded=0;sketch=0;fontColor=#143642;" parent="liFReSEdS2mjlkRS8NIn-209" vertex="1"><mxGeometry x="160" y="80" width="130" height="40" as="geometry"/></mxCell><mxCell id="liFReSEdS2mjlkRS8NIn-212" value="土地 42000" style="text;html=1;strokeColor=none;fillColor=none;align=center;verticalAlign=middle;whiteSpace=wrap;rounded=0;sketch=0;fontColor=#143642;" parent="liFReSEdS2mjlkRS8NIn-209" vertex="1"><mxGeometry x="410" y="80" width="110" height="40" as="geometry"/></mxCell><mxCell id="liFReSEdS2mjlkRS8NIn-213" value="&lt;b&gt;&lt;font color=&quot;#3e29ff&quot;&gt;十二级.长安城&lt;/font&gt;&lt;/b&gt;" style="text;html=1;strokeColor=none;fillColor=none;align=center;verticalAlign=middle;whiteSpace=wrap;rounded=0;sketch=0;fontColor=#143642;" parent="liFReSEdS2mjlkRS8NIn-209" vertex="1"><mxGeometry x="285" y="80" width="120" height="40" as="geometry"/></mxCell><mxCell id="liFReSEdS2mjlkRS8NIn-214" value="" style="rounded=0;whiteSpace=wrap;html=1;sketch=0;strokeColor=#0F8B8D;fillColor=#FAE5C7;fontColor=#143642;" parent="liFReSEdS2mjlkRS8NIn-209" vertex="1"><mxGeometry x="300" y="300" width="210" height="440" as="geometry"/></mxCell><mxCell id="liFReSEdS2mjlkRS8NIn-215" style="edgeStyle=orthogonalEdgeStyle;curved=0;rounded=1;sketch=0;orthogonalLoop=1;jettySize=auto;html=1;strokeColor=#A8201A;fillColor=#FAE5C7;fontColor=#143642;" parent="liFReSEdS2mjlkRS8NIn-209" source="liFReSEdS2mjlkRS8NIn-216" edge="1"><mxGeometry relative="1" as="geometry"><mxPoint x="510" y="325" as="targetPoint"/></mxGeometry></mxCell><mxCell id="liFReSEdS2mjlkRS8NIn-216" value="库存内容" style="text;html=1;strokeColor=#b85450;fillColor=#f8cecc;align=left;verticalAlign=middle;whiteSpace=wrap;rounded=0;sketch=0;" parent="liFReSEdS2mjlkRS8NIn-209" vertex="1"><mxGeometry x="560" y="300" width="100" height="50" as="geometry"/></mxCell><mxCell id="liFReSEdS2mjlkRS8NIn-218" style="edgeStyle=orthogonalEdgeStyle;curved=0;rounded=1;sketch=0;orthogonalLoop=1;jettySize=auto;html=1;strokeColor=#A8201A;fillColor=#FAE5C7;fontColor=#143642;" parent="liFReSEdS2mjlkRS8NIn-209" source="liFReSEdS2mjlkRS8NIn-219" target="liFReSEdS2mjlkRS8NIn-220" edge="1"><mxGeometry relative="1" as="geometry"/></mxCell><mxCell id="liFReSEdS2mjlkRS8NIn-219" value="如果还有，可以往下翻。&lt;br&gt;如果没了，就显示：&lt;span style=&quot;color: rgb(133 , 133 , 133)&quot;&gt;到尽头啦！&lt;/span&gt;" style="text;html=1;strokeColor=#b85450;fillColor=#f8cecc;align=center;verticalAlign=middle;whiteSpace=wrap;rounded=0;sketch=0;" parent="liFReSEdS2mjlkRS8NIn-209" vertex="1"><mxGeometry x="540" y="650" width="150" height="80" as="geometry"/></mxCell><mxCell id="liFReSEdS2mjlkRS8NIn-220" value="&lt;font color=&quot;#858585&quot;&gt;后面还有，翻翻看？&lt;/font&gt;" style="text;html=1;strokeColor=none;fillColor=none;align=center;verticalAlign=middle;whiteSpace=wrap;rounded=0;sketch=0;fontColor=#143642;" parent="liFReSEdS2mjlkRS8NIn-209" vertex="1"><mxGeometry x="320" y="700" width="180" height="30" as="geometry"/></mxCell><mxCell id="14" value="" style="group" parent="liFReSEdS2mjlkRS8NIn-209" vertex="1" connectable="0"><mxGeometry x="300" y="300" width="210" height="30" as="geometry"/></mxCell><mxCell id="15" value="" style="rounded=0;whiteSpace=wrap;html=1;sketch=0;align=left;fillColor=#f5f5f5;strokeColor=#666666;fontColor=#333333;" parent="14" vertex="1"><mxGeometry width="210" height="30" as="geometry"/></mxCell><mxCell id="17" value="物品" style="text;html=1;strokeColor=none;fillColor=none;align=center;verticalAlign=middle;whiteSpace=wrap;rounded=0;sketch=0;fontColor=#143642;" parent="14" vertex="1"><mxGeometry width="70" height="30" as="geometry"/></mxCell><mxCell id="18" value="库存" style="text;html=1;strokeColor=none;fillColor=none;align=center;verticalAlign=middle;whiteSpace=wrap;rounded=0;sketch=0;fontColor=#143642;" parent="14" vertex="1"><mxGeometry x="70" width="90" height="30" as="geometry"/></mxCell><mxCell id="25" value="" style="group" parent="liFReSEdS2mjlkRS8NIn-209" vertex="1" connectable="0"><mxGeometry x="300" y="330" width="210" height="60" as="geometry"/></mxCell><mxCell id="liFReSEdS2mjlkRS8NIn-222" value="" style="rounded=0;whiteSpace=wrap;html=1;sketch=0;align=left;fillColor=#f5f5f5;strokeColor=#666666;fontColor=#333333;" parent="25" vertex="1"><mxGeometry width="210" height="60" as="geometry"/></mxCell><mxCell id="liFReSEdS2mjlkRS8NIn-223" value="出售" style="rounded=1;whiteSpace=wrap;html=1;sketch=0;strokeColor=#0F8B8D;fillColor=#FAE5C7;fontColor=#143642;align=center;" parent="25" vertex="1"><mxGeometry x="120" y="30" width="90" height="30" as="geometry"/></mxCell><mxCell id="liFReSEdS2mjlkRS8NIn-225" value="大米" style="text;html=1;strokeColor=none;fillColor=none;align=center;verticalAlign=middle;whiteSpace=wrap;rounded=0;sketch=0;fontColor=#143642;" parent="25" vertex="1"><mxGeometry width="70" height="30" as="geometry"/></mxCell><mxCell id="liFReSEdS2mjlkRS8NIn-227" value="582" style="text;html=1;strokeColor=none;fillColor=none;align=center;verticalAlign=middle;whiteSpace=wrap;rounded=0;sketch=0;fontColor=#143642;" parent="25" vertex="1"><mxGeometry x="70" width="90" height="30" as="geometry"/></mxCell><mxCell id="24" value="使用" style="rounded=1;whiteSpace=wrap;html=1;sketch=0;strokeColor=#0F8B8D;fillColor=#FAE5C7;fontColor=#143642;align=center;" parent="25" vertex="1"><mxGeometry y="30" width="90" height="30" as="geometry"/></mxCell><mxCell id="26" value="" style="group" parent="liFReSEdS2mjlkRS8NIn-209" vertex="1" connectable="0"><mxGeometry x="300" y="390" width="210" height="60" as="geometry"/></mxCell><mxCell id="27" value="" style="rounded=0;whiteSpace=wrap;html=1;sketch=0;align=left;fillColor=#f5f5f5;strokeColor=#666666;fontColor=#333333;" parent="26" vertex="1"><mxGeometry width="210" height="60" as="geometry"/></mxCell><mxCell id="28" value="出售" style="rounded=1;whiteSpace=wrap;html=1;sketch=0;strokeColor=#0F8B8D;fillColor=#FAE5C7;fontColor=#143642;align=center;" parent="26" vertex="1"><mxGeometry x="120" y="30" width="90" height="30" as="geometry"/></mxCell><mxCell id="29" value="木板" style="text;html=1;strokeColor=none;fillColor=none;align=center;verticalAlign=middle;whiteSpace=wrap;rounded=0;sketch=0;fontColor=#143642;" parent="26" vertex="1"><mxGeometry width="70" height="30" as="geometry"/></mxCell><mxCell id="30" value="582" style="text;html=1;strokeColor=none;fillColor=none;align=center;verticalAlign=middle;whiteSpace=wrap;rounded=0;sketch=0;fontColor=#143642;" parent="26" vertex="1"><mxGeometry x="70" width="90" height="30" as="geometry"/></mxCell><mxCell id="31" value="使用" style="rounded=1;whiteSpace=wrap;html=1;sketch=0;strokeColor=#0F8B8D;fillColor=#FAE5C7;fontColor=#143642;align=center;" parent="26" vertex="1"><mxGeometry y="30" width="90" height="30" as="geometry"/></mxCell><mxCell id="33" value="本地.工作" parent="0" visible="0"/><mxCell id="34" value="" style="rounded=0;whiteSpace=wrap;html=1;sketch=0;strokeColor=#0F8B8D;fillColor=#FAE5C7;fontColor=#143642;" parent="33" vertex="1"><mxGeometry x="160" y="80" width="360" height="40" as="geometry"/></mxCell><mxCell id="35" value="&lt;font color=&quot;#000000&quot;&gt;728&amp;nbsp;年 4&amp;nbsp;月 1&amp;nbsp;日&amp;nbsp;傍晚&lt;/font&gt;" style="text;html=1;strokeColor=none;fillColor=none;align=center;verticalAlign=middle;whiteSpace=wrap;rounded=0;sketch=0;fontColor=#143642;" parent="33" vertex="1"><mxGeometry x="160" y="80" width="130" height="40" as="geometry"/></mxCell><mxCell id="36" value="土地 42000" style="text;html=1;strokeColor=none;fillColor=none;align=center;verticalAlign=middle;whiteSpace=wrap;rounded=0;sketch=0;fontColor=#143642;" parent="33" vertex="1"><mxGeometry x="410" y="80" width="110" height="40" as="geometry"/></mxCell><mxCell id="37" value="&lt;b&gt;&lt;font color=&quot;#3e29ff&quot;&gt;十二级.长安城&lt;/font&gt;&lt;/b&gt;" style="text;html=1;strokeColor=none;fillColor=none;align=center;verticalAlign=middle;whiteSpace=wrap;rounded=0;sketch=0;fontColor=#143642;" parent="33" vertex="1"><mxGeometry x="285" y="80" width="120" height="40" as="geometry"/></mxCell><mxCell id="38" value="" style="rounded=0;whiteSpace=wrap;html=1;sketch=0;strokeColor=#0F8B8D;fillColor=#FAE5C7;fontColor=#143642;" parent="33" vertex="1"><mxGeometry x="300" y="140" width="210" height="600" as="geometry"/></mxCell><mxCell id="39" style="edgeStyle=orthogonalEdgeStyle;curved=0;rounded=1;sketch=0;orthogonalLoop=1;jettySize=auto;html=1;strokeColor=#A8201A;fillColor=#FAE5C7;fontColor=#143642;" parent="33" source="40" edge="1"><mxGeometry relative="1" as="geometry"><mxPoint x="510" y="175" as="targetPoint"/></mxGeometry></mxCell><mxCell id="40" value="工作名，经验级别和工作剩余时间（倒计时）&lt;br&gt;&lt;br&gt;精力消耗，收益（三位小数）" style="text;html=1;strokeColor=#b85450;fillColor=#f8cecc;align=left;verticalAlign=top;whiteSpace=wrap;rounded=0;sketch=0;" parent="33" vertex="1"><mxGeometry x="545" y="140" width="140" height="100" as="geometry"/></mxCell><mxCell id="73" value="" style="group" parent="33" vertex="1" connectable="0"><mxGeometry x="300" y="140" width="210" height="90" as="geometry"/></mxCell><mxCell id="49" value="" style="rounded=0;whiteSpace=wrap;html=1;sketch=0;align=left;fillColor=#f5f5f5;strokeColor=#666666;fontColor=#333333;" parent="73" vertex="1"><mxGeometry width="210" height="90" as="geometry"/></mxCell><mxCell id="50" value="详 细 信 息" style="rounded=1;whiteSpace=wrap;html=1;sketch=0;strokeColor=#0F8B8D;fillColor=#FAE5C7;fontColor=#143642;align=center;" parent="73" vertex="1"><mxGeometry x="120" y="60" width="90" height="30" as="geometry"/></mxCell><mxCell id="51" value="垦荒者(学徒)" style="text;html=1;strokeColor=none;fillColor=none;align=center;verticalAlign=middle;whiteSpace=wrap;rounded=0;sketch=0;fontColor=#143642;" parent="73" vertex="1"><mxGeometry width="130" height="30" as="geometry"/></mxCell><mxCell id="52" value="精力：-10/h" style="text;html=1;strokeColor=none;fillColor=none;align=center;verticalAlign=middle;whiteSpace=wrap;rounded=0;sketch=0;fontColor=#143642;" parent="73" vertex="1"><mxGeometry y="30" width="100" height="30" as="geometry"/></mxCell><mxCell id="53" value="开 始 工 作" style="rounded=1;whiteSpace=wrap;html=1;sketch=0;strokeColor=#0F8B8D;fillColor=#FAE5C7;fontColor=#143642;align=center;" parent="73" vertex="1"><mxGeometry y="60" width="90" height="30" as="geometry"/></mxCell><mxCell id="68" value="&lt;span&gt;收益：0.892土地&lt;/span&gt;" style="text;html=1;strokeColor=none;fillColor=none;align=center;verticalAlign=middle;whiteSpace=wrap;rounded=0;sketch=0;fontColor=#143642;" parent="73" vertex="1"><mxGeometry x="100" y="30" width="110" height="30" as="geometry"/></mxCell><mxCell id="69" value="-" style="text;html=1;strokeColor=none;fillColor=none;align=center;verticalAlign=middle;whiteSpace=wrap;rounded=0;sketch=0;fontColor=#143642;" parent="73" vertex="1"><mxGeometry x="130" width="80" height="30" as="geometry"/></mxCell><mxCell id="74" value="" style="group" parent="33" vertex="1" connectable="0"><mxGeometry x="300" y="230" width="210" height="90" as="geometry"/></mxCell><mxCell id="75" value="" style="rounded=0;whiteSpace=wrap;html=1;sketch=0;align=left;fillColor=#f5f5f5;strokeColor=#666666;fontColor=#333333;" parent="74" vertex="1"><mxGeometry width="210" height="90" as="geometry"/></mxCell><mxCell id="76" value="详 细 信 息" style="rounded=1;whiteSpace=wrap;html=1;sketch=0;strokeColor=#0F8B8D;fillColor=#FAE5C7;fontColor=#143642;align=center;" parent="74" vertex="1"><mxGeometry x="120" y="60" width="90" height="30" as="geometry"/></mxCell><mxCell id="77" value="伐木人(大师)" style="text;html=1;strokeColor=none;fillColor=none;align=center;verticalAlign=middle;whiteSpace=wrap;rounded=0;sketch=0;fontColor=#143642;" parent="74" vertex="1"><mxGeometry width="130" height="30" as="geometry"/></mxCell><mxCell id="78" value="精力：-1/h" style="text;html=1;strokeColor=none;fillColor=none;align=center;verticalAlign=middle;whiteSpace=wrap;rounded=0;sketch=0;fontColor=#143642;" parent="74" vertex="1"><mxGeometry y="30" width="100" height="30" as="geometry"/></mxCell><mxCell id="79" value="&lt;span style=&quot;color: rgb(0 , 0 , 0) ; text-align: left&quot;&gt;终 止&lt;/span&gt;&amp;nbsp;工 作" style="rounded=1;whiteSpace=wrap;html=1;sketch=0;strokeColor=#0F8B8D;fillColor=#FAE5C7;fontColor=#143642;align=center;" parent="74" vertex="1"><mxGeometry y="60" width="90" height="30" as="geometry"/></mxCell><mxCell id="80" value="&lt;span&gt;收益：4木材&lt;/span&gt;" style="text;html=1;strokeColor=none;fillColor=none;align=center;verticalAlign=middle;whiteSpace=wrap;rounded=0;sketch=0;fontColor=#143642;" parent="74" vertex="1"><mxGeometry x="100" y="30" width="110" height="30" as="geometry"/></mxCell><mxCell id="81" value="7:42:24" style="text;html=1;strokeColor=none;fillColor=none;align=center;verticalAlign=middle;whiteSpace=wrap;rounded=0;sketch=0;fontColor=#143642;" parent="74" vertex="1"><mxGeometry x="130" width="80" height="30" as="geometry"/></mxCell><mxCell id="82" style="edgeStyle=orthogonalEdgeStyle;curved=1;rounded=0;orthogonalLoop=1;jettySize=auto;html=1;fillColor=#f8cecc;strokeColor=#b85450;" parent="33" source="70" target="79" edge="1"><mxGeometry relative="1" as="geometry"/></mxCell><mxCell id="70" value="如果正在工作，则显示“终止工作”，该选项为二次确认（提示终止后无法获取收益）" style="text;html=1;strokeColor=#b85450;fillColor=#f8cecc;align=left;verticalAlign=middle;whiteSpace=wrap;rounded=0;sketch=0;" parent="33" vertex="1"><mxGeometry x="540" y="330" width="135" height="70" as="geometry"/></mxCell><mxCell id="84" style="edgeStyle=orthogonalEdgeStyle;curved=1;rounded=0;orthogonalLoop=1;jettySize=auto;html=1;fillColor=#f8cecc;strokeColor=#b85450;" parent="33" source="83" target="50" edge="1"><mxGeometry relative="1" as="geometry"/></mxCell><mxCell id="83" value="暂时无用" style="text;html=1;strokeColor=#b85450;fillColor=#f8cecc;align=left;verticalAlign=middle;whiteSpace=wrap;rounded=0;sketch=0;" parent="33" vertex="1"><mxGeometry x="557.5" y="250" width="100" height="50" as="geometry"/></mxCell><mxCell id="289" value="本地.建筑" parent="0"/><mxCell id="290" value="" style="rounded=0;whiteSpace=wrap;html=1;sketch=0;strokeColor=#0F8B8D;fillColor=#FAE5C7;fontColor=#143642;" vertex="1" parent="289"><mxGeometry x="160" y="80" width="360" height="40" as="geometry"/></mxCell><mxCell id="291" value="&lt;font color=&quot;#000000&quot;&gt;728&amp;nbsp;年 4&amp;nbsp;月 1&amp;nbsp;日&amp;nbsp;傍晚&lt;/font&gt;" style="text;html=1;strokeColor=none;fillColor=none;align=center;verticalAlign=middle;whiteSpace=wrap;rounded=0;sketch=0;fontColor=#143642;" vertex="1" parent="289"><mxGeometry x="160" y="80" width="130" height="40" as="geometry"/></mxCell><mxCell id="292" value="土地 42000" style="text;html=1;strokeColor=none;fillColor=none;align=center;verticalAlign=middle;whiteSpace=wrap;rounded=0;sketch=0;fontColor=#143642;" vertex="1" parent="289"><mxGeometry x="410" y="80" width="110" height="40" as="geometry"/></mxCell><mxCell id="293" value="&lt;b&gt;&lt;font color=&quot;#3e29ff&quot;&gt;十二级.长安城&lt;/font&gt;&lt;/b&gt;" style="text;html=1;strokeColor=none;fillColor=none;align=center;verticalAlign=middle;whiteSpace=wrap;rounded=0;sketch=0;fontColor=#143642;" vertex="1" parent="289"><mxGeometry x="285" y="80" width="120" height="40" as="geometry"/></mxCell><mxCell id="294" value="" style="rounded=0;whiteSpace=wrap;html=1;sketch=0;strokeColor=#0F8B8D;fillColor=#FAE5C7;fontColor=#143642;" vertex="1" parent="289"><mxGeometry x="300" y="170" width="210" height="570" as="geometry"/></mxCell><mxCell id="295" style="edgeStyle=orthogonalEdgeStyle;curved=0;rounded=1;sketch=0;orthogonalLoop=1;jettySize=auto;html=1;strokeColor=#A8201A;fillColor=#FAE5C7;fontColor=#143642;" edge="1" parent="289" source="296"><mxGeometry relative="1" as="geometry"><mxPoint x="510" y="205" as="targetPoint"/></mxGeometry></mxCell><mxCell id="296" value="工作名和工作剩余时间（倒计时）&lt;br&gt;&lt;br&gt;精力消耗，收益（三位小数）" style="text;html=1;strokeColor=#b85450;fillColor=#f8cecc;align=left;verticalAlign=top;whiteSpace=wrap;rounded=0;sketch=0;" vertex="1" parent="289"><mxGeometry x="540" y="150" width="140" height="100" as="geometry"/></mxCell><mxCell id="297" value="" style="group" vertex="1" connectable="0" parent="289"><mxGeometry x="300" y="170" width="210" height="90" as="geometry"/></mxCell><mxCell id="298" value="" style="rounded=0;whiteSpace=wrap;html=1;sketch=0;align=left;fillColor=#f5f5f5;strokeColor=#666666;fontColor=#333333;" vertex="1" parent="297"><mxGeometry width="210" height="90" as="geometry"/></mxCell><mxCell id="299" value="详 细 信 息" style="rounded=1;whiteSpace=wrap;html=1;sketch=0;strokeColor=#0F8B8D;fillColor=#FAE5C7;fontColor=#143642;align=center;" vertex="1" parent="297"><mxGeometry x="120" y="60" width="90" height="30" as="geometry"/></mxCell><mxCell id="300" value="&lt;span&gt;浆果丛（&lt;/span&gt;6座）" style="text;html=1;strokeColor=none;fillColor=none;align=center;verticalAlign=middle;whiteSpace=wrap;rounded=0;sketch=0;fontColor=#143642;" vertex="1" parent="297"><mxGeometry width="130" height="30" as="geometry"/></mxCell><mxCell id="301" value="精力：-10/h" style="text;html=1;strokeColor=none;fillColor=none;align=center;verticalAlign=middle;whiteSpace=wrap;rounded=0;sketch=0;fontColor=#143642;" vertex="1" parent="297"><mxGeometry y="30" width="100" height="30" as="geometry"/></mxCell><mxCell id="302" value="开 始 工 作" style="rounded=1;whiteSpace=wrap;html=1;sketch=0;strokeColor=#0F8B8D;fillColor=#FAE5C7;fontColor=#143642;align=center;" vertex="1" parent="297"><mxGeometry y="60" width="90" height="30" as="geometry"/></mxCell><mxCell id="303" value="&lt;span&gt;收益：&lt;/span&gt;0.892&lt;span&gt;%&lt;/span&gt;" style="text;html=1;strokeColor=none;fillColor=none;align=center;verticalAlign=middle;whiteSpace=wrap;rounded=0;sketch=0;fontColor=#143642;" vertex="1" parent="297"><mxGeometry x="100" y="30" width="110" height="30" as="geometry"/></mxCell><mxCell id="304" value="-" style="text;html=1;strokeColor=none;fillColor=none;align=center;verticalAlign=middle;whiteSpace=wrap;rounded=0;sketch=0;fontColor=#143642;" vertex="1" parent="297"><mxGeometry x="130" width="80" height="30" as="geometry"/></mxCell><mxCell id="305" value="" style="group" vertex="1" connectable="0" parent="289"><mxGeometry x="300" y="260" width="210" height="90" as="geometry"/></mxCell><mxCell id="306" value="" style="rounded=0;whiteSpace=wrap;html=1;sketch=0;align=left;fillColor=#f5f5f5;strokeColor=#666666;fontColor=#333333;" vertex="1" parent="305"><mxGeometry width="210" height="90" as="geometry"/></mxCell><mxCell id="307" value="详 细 信 息" style="rounded=1;whiteSpace=wrap;html=1;sketch=0;strokeColor=#0F8B8D;fillColor=#FAE5C7;fontColor=#143642;align=center;" vertex="1" parent="305"><mxGeometry x="120" y="60" width="90" height="30" as="geometry"/></mxCell><mxCell id="308" value="伐木厂（0座）" style="text;html=1;strokeColor=none;fillColor=none;align=center;verticalAlign=middle;whiteSpace=wrap;rounded=0;sketch=0;fontColor=#143642;" vertex="1" parent="305"><mxGeometry width="130" height="30" as="geometry"/></mxCell><mxCell id="309" value="精力：-1/h" style="text;html=1;strokeColor=none;fillColor=none;align=center;verticalAlign=middle;whiteSpace=wrap;rounded=0;sketch=0;fontColor=#143642;" vertex="1" parent="305"><mxGeometry y="30" width="100" height="30" as="geometry"/></mxCell><mxCell id="310" value="&lt;span style=&quot;color: rgb(0 , 0 , 0) ; text-align: left&quot;&gt;终 止&lt;/span&gt;&amp;nbsp;工 作" style="rounded=1;whiteSpace=wrap;html=1;sketch=0;strokeColor=#0F8B8D;fillColor=#FAE5C7;fontColor=#143642;align=center;" vertex="1" parent="305"><mxGeometry y="60" width="90" height="30" as="geometry"/></mxCell><mxCell id="311" value="&lt;span&gt;收益：4木材&lt;/span&gt;" style="text;html=1;strokeColor=none;fillColor=none;align=center;verticalAlign=middle;whiteSpace=wrap;rounded=0;sketch=0;fontColor=#143642;" vertex="1" parent="305"><mxGeometry x="100" y="30" width="110" height="30" as="geometry"/></mxCell><mxCell id="312" value="07:42:24" style="text;html=1;strokeColor=none;fillColor=none;align=center;verticalAlign=middle;whiteSpace=wrap;rounded=0;sketch=0;fontColor=#143642;" vertex="1" parent="305"><mxGeometry x="130" width="80" height="30" as="geometry"/></mxCell><mxCell id="313" style="edgeStyle=orthogonalEdgeStyle;curved=1;rounded=0;orthogonalLoop=1;jettySize=auto;html=1;fillColor=#f8cecc;strokeColor=#b85450;" edge="1" parent="289" source="314" target="310"><mxGeometry relative="1" as="geometry"/></mxCell><mxCell id="314" value="如果正在工作，则显示“终止工作”，该选项为二次确认（提示终止后无法获取收益）" style="text;html=1;strokeColor=#b85450;fillColor=#f8cecc;align=left;verticalAlign=middle;whiteSpace=wrap;rounded=0;sketch=0;" vertex="1" parent="289"><mxGeometry x="540" y="360" width="135" height="70" as="geometry"/></mxCell><mxCell id="315" style="edgeStyle=orthogonalEdgeStyle;curved=1;rounded=0;orthogonalLoop=1;jettySize=auto;html=1;fillColor=#f8cecc;strokeColor=#b85450;" edge="1" parent="289" source="316" target="299"><mxGeometry relative="1" as="geometry"/></mxCell><mxCell id="316" value="暂时无用" style="text;html=1;strokeColor=#b85450;fillColor=#f8cecc;align=left;verticalAlign=middle;whiteSpace=wrap;rounded=0;sketch=0;" vertex="1" parent="289"><mxGeometry x="575" y="260" width="100" height="50" as="geometry"/></mxCell><mxCell id="325" value="&lt;span&gt;建筑师&lt;/span&gt;：64%" style="text;html=1;strokeColor=none;fillColor=none;align=center;verticalAlign=middle;whiteSpace=wrap;rounded=0;sketch=0;fontColor=#143642;" vertex="1" parent="289"><mxGeometry x="300" y="135" width="210" height="30" as="geometry"/></mxCell><mxCell id="85" value="世界.背景" parent="0" visible="0"/><mxCell id="86" value="" style="rounded=0;whiteSpace=wrap;html=1;sketch=0;strokeColor=#0F8B8D;fillColor=#FAE5C7;fontColor=#143642;" parent="85" vertex="1"><mxGeometry x="160" y="80" width="360" height="40" as="geometry"/></mxCell><mxCell id="87" value="&lt;font color=&quot;#000000&quot;&gt;728&amp;nbsp;年 4&amp;nbsp;月 1&amp;nbsp;日&amp;nbsp;傍晚&lt;/font&gt;" style="text;html=1;strokeColor=none;fillColor=none;align=center;verticalAlign=middle;whiteSpace=wrap;rounded=0;sketch=0;fontColor=#143642;" parent="85" vertex="1"><mxGeometry x="160" y="80" width="130" height="40" as="geometry"/></mxCell><mxCell id="89" value="&lt;font color=&quot;#3e29ff&quot;&gt;&lt;b&gt;蛮荒&lt;/b&gt;&lt;/font&gt;" style="text;html=1;strokeColor=none;fillColor=none;align=center;verticalAlign=middle;whiteSpace=wrap;rounded=0;sketch=0;fontColor=#143642;" parent="85" vertex="1"><mxGeometry x="285" y="80" width="145" height="40" as="geometry"/></mxCell><mxCell id="111" style="edgeStyle=orthogonalEdgeStyle;curved=1;rounded=0;orthogonalLoop=1;jettySize=auto;html=1;fillColor=#f8cecc;strokeColor=#b85450;" parent="85" source="112" target="114" edge="1"><mxGeometry relative="1" as="geometry"><mxPoint x="465" y="390" as="targetPoint"/></mxGeometry></mxCell><mxCell id="112" value="打开一个地图模态框&lt;br&gt;游戏暂停" style="text;html=1;strokeColor=#b85450;fillColor=#f8cecc;align=left;verticalAlign=middle;whiteSpace=wrap;rounded=0;sketch=0;" parent="85" vertex="1"><mxGeometry x="550" y="75" width="122.5" height="50" as="geometry"/></mxCell><mxCell id="114" value="地&amp;nbsp; &amp;nbsp;图" style="rounded=1;whiteSpace=wrap;html=1;sketch=0;strokeColor=#0F8B8D;fillColor=#FAE5C7;fontColor=#143642;align=center;" parent="85" vertex="1"><mxGeometry x="430" y="80" width="90" height="40" as="geometry"/></mxCell><mxCell id="138" value="世界.地图" parent="0" visible="0"/><mxCell id="145" value="" style="rounded=0;whiteSpace=wrap;html=1;verticalAlign=top;fillColor=#fff2cc;strokeColor=#d6b656;" parent="138" vertex="1"><mxGeometry x="180" y="150" width="320" height="500" as="geometry"/></mxCell><mxCell id="146" style="edgeStyle=orthogonalEdgeStyle;shape=link;curved=1;rounded=0;orthogonalLoop=1;jettySize=auto;html=1;" parent="138" source="147" target="152" edge="1"><mxGeometry relative="1" as="geometry"/></mxCell><mxCell id="147" value="蛮荒哨所&lt;br&gt;&lt;span&gt;帝国管控&lt;br&gt;&lt;br&gt;&lt;/span&gt;敌人稀少&lt;span&gt;&lt;br&gt;&lt;/span&gt;" style="whiteSpace=wrap;html=1;aspect=fixed;verticalAlign=top;fillColor=#e1d5e7;strokeColor=#9673a6;" parent="138" vertex="1"><mxGeometry x="250" y="365" width="70" height="70" as="geometry"/></mxCell><mxCell id="148" style="edgeStyle=orthogonalEdgeStyle;curved=1;rounded=0;orthogonalLoop=1;jettySize=auto;html=1;shape=link;" parent="138" source="150" target="147" edge="1"><mxGeometry relative="1" as="geometry"/></mxCell><mxCell id="149" style="edgeStyle=orthogonalEdgeStyle;shape=link;curved=1;rounded=0;orthogonalLoop=1;jettySize=auto;html=1;" parent="138" source="150" target="153" edge="1"><mxGeometry relative="1" as="geometry"/></mxCell><mxCell id="150" value="&lt;span&gt;长安城&lt;br&gt;&lt;/span&gt;自治&lt;br&gt;&lt;span&gt;&lt;br&gt;&lt;/span&gt;&lt;span&gt;极为安全&lt;br&gt;&lt;/span&gt;" style="whiteSpace=wrap;html=1;aspect=fixed;verticalAlign=top;fillColor=#e1d5e7;strokeColor=#9673a6;" parent="138" vertex="1"><mxGeometry x="380" y="365" width="70" height="70" as="geometry"/></mxCell><mxCell id="151" style="edgeStyle=orthogonalEdgeStyle;shape=link;curved=1;rounded=0;orthogonalLoop=1;jettySize=auto;html=1;" parent="138" source="152" target="154" edge="1"><mxGeometry relative="1" as="geometry"/></mxCell><mxCell id="152" value="&lt;span&gt;嘟噜岩地&lt;br&gt;&lt;/span&gt;&lt;span&gt;交战区&lt;br&gt;&lt;br&gt;&lt;/span&gt;敌人较多&lt;span&gt;&lt;br&gt;&lt;/span&gt;" style="whiteSpace=wrap;html=1;aspect=fixed;verticalAlign=top;fillColor=#e1d5e7;strokeColor=#9673a6;" parent="138" vertex="1"><mxGeometry x="250" y="250" width="70" height="70" as="geometry"/></mxCell><mxCell id="153" value="&lt;span&gt;洛阳城&lt;br&gt;&lt;/span&gt;自治&lt;br&gt;&lt;span&gt;&lt;br&gt;&lt;/span&gt;&lt;span&gt;极为安全&lt;br&gt;&lt;/span&gt;" style="whiteSpace=wrap;html=1;aspect=fixed;verticalAlign=top;fillColor=#e1d5e7;strokeColor=#9673a6;" parent="138" vertex="1"><mxGeometry x="380" y="480" width="70" height="70" as="geometry"/></mxCell><mxCell id="154" value="&lt;span&gt;黑森林&lt;br&gt;&lt;/span&gt;&lt;span&gt;交战区&lt;br&gt;&lt;br&gt;&lt;/span&gt;敌人密集&lt;span&gt;&lt;br&gt;&lt;/span&gt;" style="whiteSpace=wrap;html=1;aspect=fixed;verticalAlign=top;fillColor=#e1d5e7;strokeColor=#9673a6;" parent="138" vertex="1"><mxGeometry x="250" y="130" width="70" height="70" as="geometry"/></mxCell><mxCell id="155" style="edgeStyle=orthogonalEdgeStyle;curved=1;rounded=0;orthogonalLoop=1;jettySize=auto;html=1;fillColor=#f8cecc;strokeColor=#b85450;" parent="138" source="156" target="150" edge="1"><mxGeometry relative="1" as="geometry"/></mxCell><mxCell id="156" value="地点名&lt;br&gt;状态&lt;br&gt;安全程度" style="text;html=1;strokeColor=#b85450;fillColor=#f8cecc;align=left;verticalAlign=middle;whiteSpace=wrap;rounded=0;sketch=0;" parent="138" vertex="1"><mxGeometry x="565" y="420" width="82.5" height="50" as="geometry"/></mxCell><mxCell id="157" style="edgeStyle=orthogonalEdgeStyle;curved=1;rounded=0;orthogonalLoop=1;jettySize=auto;html=1;fillColor=#f8cecc;strokeColor=#b85450;" parent="138" source="158" target="145" edge="1"><mxGeometry relative="1" as="geometry"/></mxCell><mxCell id="158" value="正常模态框，右上角有关闭按钮&lt;br&gt;玩家可以拖拽移动地图，不支持缩放" style="text;html=1;strokeColor=#b85450;fillColor=#f8cecc;align=left;verticalAlign=middle;whiteSpace=wrap;rounded=0;sketch=0;" parent="138" vertex="1"><mxGeometry x="550" y="290" width="82.5" height="90" as="geometry"/></mxCell><mxCell id="159" value="前&amp;nbsp; 往" style="rounded=1;whiteSpace=wrap;html=1;sketch=0;strokeColor=#006EAF;fillColor=#1ba1e2;align=center;fontColor=#ffffff;" parent="138" vertex="1"><mxGeometry x="195" y="595" width="90" height="35" as="geometry"/></mxCell><mxCell id="160" style="edgeStyle=orthogonalEdgeStyle;curved=1;rounded=0;orthogonalLoop=1;jettySize=auto;html=1;fillColor=#f8cecc;strokeColor=#b85450;" parent="138" source="161" target="159" edge="1"><mxGeometry relative="1" as="geometry"/></mxCell><mxCell id="161" value="选中非当前所在地时，可以点击前往按钮来前往" style="text;html=1;strokeColor=#b85450;fillColor=#f8cecc;align=left;verticalAlign=middle;whiteSpace=wrap;rounded=0;sketch=0;" parent="138" vertex="1"><mxGeometry x="10" y="580" width="122.5" height="50" as="geometry"/></mxCell><mxCell id="162" value="" style="line;strokeWidth=2;html=1;verticalAlign=top;" parent="138" vertex="1"><mxGeometry x="180" y="570" width="320" height="10" as="geometry"/></mxCell><mxCell id="163" value="世界.战斗" parent="0" visible="0"/><mxCell id="170" value="哥布林" style="shape=umlActor;verticalLabelPosition=bottom;verticalAlign=top;html=1;outlineConnect=0;fillColor=#f8cecc;strokeColor=#b85450;" parent="163" vertex="1"><mxGeometry x="190" y="160" width="50" height="70" as="geometry"/></mxCell><mxCell id="171" value="哀嚎恶犬" style="shape=umlActor;verticalLabelPosition=bottom;verticalAlign=top;html=1;outlineConnect=0;fillColor=#f8cecc;strokeColor=#b85450;" parent="163" vertex="1"><mxGeometry x="190" y="290" width="50" height="70" as="geometry"/></mxCell><mxCell id="172" value="哥布林巨人" style="shape=umlActor;verticalLabelPosition=bottom;verticalAlign=top;html=1;outlineConnect=0;fillColor=#f8cecc;strokeColor=#b85450;" parent="163" vertex="1"><mxGeometry x="285" y="220" width="50" height="70" as="geometry"/></mxCell><mxCell id="173" value="公孙乌龙" style="shape=umlActor;verticalLabelPosition=bottom;verticalAlign=top;html=1;outlineConnect=0;fillColor=#dae8fc;strokeColor=#6c8ebf;" parent="163" vertex="1"><mxGeometry x="410" y="220" width="50" height="70" as="geometry"/></mxCell><mxCell id="174" value="" style="line;strokeWidth=2;html=1;verticalAlign=top;" parent="163" vertex="1"><mxGeometry x="160" y="400" width="360" height="10" as="geometry"/></mxCell><mxCell id="175" value="" style="line;strokeWidth=2;html=1;verticalAlign=top;" parent="163" vertex="1"><mxGeometry x="160" y="470" width="360" height="10" as="geometry"/></mxCell><mxCell id="179" value="&lt;font color=&quot;#000000&quot;&gt;公孙乌龙头槌了哥布林巨人，造成 42&amp;nbsp;点伤害。&lt;/font&gt;" style="text;html=1;strokeColor=none;fillColor=none;align=left;verticalAlign=middle;whiteSpace=wrap;rounded=0;sketch=0;fontColor=#143642;" parent="163" vertex="1"><mxGeometry x="160" y="480" width="360" height="40" as="geometry"/></mxCell><mxCell id="180" value="&lt;font color=&quot;#000000&quot;&gt;哥布林巨人赶到眩晕，本次无法攻击。&lt;/font&gt;" style="text;html=1;strokeColor=none;fillColor=none;align=left;verticalAlign=middle;whiteSpace=wrap;rounded=0;sketch=0;fontColor=#143642;" parent="163" vertex="1"><mxGeometry x="160" y="520" width="360" height="40" as="geometry"/></mxCell><mxCell id="181" value="&lt;font color=&quot;#000000&quot;&gt;哀嚎恶犬狠狠的撕下公孙乌龙的胳膊上的肉，血流不止（流血：持续四回合，基础伤害4，伤害逐次递增）&lt;/font&gt;" style="text;html=1;strokeColor=none;fillColor=none;align=left;verticalAlign=middle;whiteSpace=wrap;rounded=0;sketch=0;fontColor=#143642;" parent="163" vertex="1"><mxGeometry x="160" y="560" width="360" height="50" as="geometry"/></mxCell><mxCell id="186" value="" style="group" parent="163" vertex="1" connectable="0"><mxGeometry x="170" y="410" width="335" height="20" as="geometry"/></mxCell><mxCell id="182" value="" style="rounded=0;whiteSpace=wrap;html=1;verticalAlign=top;fillColor=#d5e8d4;strokeColor=#82b366;" parent="186" vertex="1"><mxGeometry x="75" y="5" width="260" height="10" as="geometry"/></mxCell><mxCell id="183" value="&lt;font color=&quot;#000000&quot;&gt;健康：&lt;/font&gt;" style="text;html=1;strokeColor=none;fillColor=none;align=center;verticalAlign=middle;whiteSpace=wrap;rounded=0;sketch=0;fontColor=#143642;" parent="186" vertex="1"><mxGeometry width="65" height="20" as="geometry"/></mxCell><mxCell id="185" value="" style="rounded=0;whiteSpace=wrap;html=1;verticalAlign=top;fillColor=#60a917;strokeColor=#2D7600;fontColor=#ffffff;" parent="186" vertex="1"><mxGeometry x="75" y="5" width="100" height="10" as="geometry"/></mxCell><mxCell id="187" value="" style="group" parent="163" vertex="1" connectable="0"><mxGeometry x="170" y="440" width="335" height="20" as="geometry"/></mxCell><mxCell id="188" value="" style="rounded=0;whiteSpace=wrap;html=1;verticalAlign=top;fillColor=#dae8fc;strokeColor=#6c8ebf;" parent="187" vertex="1"><mxGeometry x="75" y="5" width="260" height="10" as="geometry"/></mxCell><mxCell id="189" value="&lt;font color=&quot;#000000&quot;&gt;精力：&lt;/font&gt;" style="text;html=1;strokeColor=none;fillColor=none;align=center;verticalAlign=middle;whiteSpace=wrap;rounded=0;sketch=0;fontColor=#143642;" parent="187" vertex="1"><mxGeometry width="65" height="20" as="geometry"/></mxCell><mxCell id="190" value="" style="rounded=0;whiteSpace=wrap;html=1;verticalAlign=top;fillColor=#1ba1e2;strokeColor=#006EAF;fontColor=#ffffff;" parent="187" vertex="1"><mxGeometry x="75" y="5" width="100" height="10" as="geometry"/></mxCell><mxCell id="191" value="背包" style="rounded=1;whiteSpace=wrap;html=1;sketch=0;strokeColor=#0F8B8D;fillColor=#FAE5C7;fontColor=#143642;align=center;" parent="163" vertex="1"><mxGeometry x="420" y="130" width="90" height="40" as="geometry"/></mxCell></root></mxGraphModel></diagram></mxfile>